<svg xmlns="http://www.w3.org/2000/svg" xmlns:xlink="http://www.w3.org/1999/xlink" width="1366" zoomAndPan="magnify" viewBox="0 0 1024.5 576" height="768" preserveAspectRatio="xMidYMid meet" version="1.0"><defs><g/><clipPath id="093a609993"><path d="M 0 0.140625 L 1024 0.140625 L 1024 575.859375 L 0 575.859375 Z M 0 0.140625 " clip-rule="nonzero"/></clipPath><clipPath id="15c0152096"><path d="M 365 226 L 1024 226 L 1024 517.96875 L 365 517.96875 Z M 365 226 " clip-rule="nonzero"/></clipPath><clipPath id="67cafcd798"><path d="M 365 261 L 987 261 L 987 517.96875 L 365 517.96875 Z M 365 261 " clip-rule="nonzero"/></clipPath></defs><g clip-path="url(#093a609993)"><path fill="#ffffff" d="M 0 0.140625 L 1024 0.140625 L 1024 575.859375 L 0 575.859375 Z M 0 0.140625 " fill-opacity="1" fill-rule="nonzero"/><path fill="#115246" d="M 0 0.140625 L 1024 0.140625 L 1024 575.859375 L 0 575.859375 Z M 0 0.140625 " fill-opacity="1" fill-rule="nonzero"/></g><g fill="#fffbed" fill-opacity="1"><g transform="translate(83.521225, 269.482875)"><g><path d="M 6.359375 0 L 2.484375 0 L 2.484375 -19.3125 L 6.359375 -19.3125 Z M 6.359375 0 "/></g></g></g><g fill="#fffbed" fill-opacity="1"><g transform="translate(92.391776, 269.482875)"><g><path d="M 16.421875 -3.046875 L 16.421875 0 L 2.484375 0 L 2.484375 -19.3125 L 16.140625 -19.3125 L 16.140625 -16.28125 L 6.359375 -16.28125 L 6.359375 -11.1875 L 15.453125 -11.1875 L 15.453125 -8.140625 L 6.359375 -8.140625 L 6.359375 -3.046875 Z M 16.421875 -3.046875 "/></g></g></g><g fill="#fffbed" fill-opacity="1"><g transform="translate(110.328672, 269.482875)"><g><path d="M 16.421875 -3.21875 L 16.421875 0 L 2.484375 0 L 2.484375 -19.3125 L 6.359375 -19.3125 L 6.359375 -3.21875 Z M 16.421875 -3.21875 "/></g></g></g><g fill="#fffbed" fill-opacity="1"><g transform="translate(127.929777, 269.482875)"><g><path d="M 17.609375 -16.28125 L 11.046875 -16.28125 L 11.046875 0 L 7.1875 0 L 7.1875 -16.28125 L 0.640625 -16.28125 L 0.640625 -19.3125 L 17.609375 -19.3125 Z M 17.609375 -16.28125 "/></g></g></g><g fill="#fffbed" fill-opacity="1"><g transform="translate(146.062548, 269.482875)"><g><path d="M 8.90625 -19.703125 C 11.101562 -19.703125 12.785156 -19.148438 13.953125 -18.046875 C 15.117188 -16.953125 15.8125 -15.476562 16.03125 -13.625 L 12.09375 -13.625 C 11.976562 -14.632812 11.640625 -15.414062 11.078125 -15.96875 C 10.523438 -16.53125 9.753906 -16.8125 8.765625 -16.8125 C 7.960938 -16.8125 7.304688 -16.613281 6.796875 -16.21875 C 6.296875 -15.832031 6.046875 -15.269531 6.046875 -14.53125 C 6.046875 -13.707031 6.347656 -13.0625 6.953125 -12.59375 C 7.554688 -12.125 8.625 -11.710938 10.15625 -11.359375 C 12.269531 -10.878906 13.820312 -10.144531 14.8125 -9.15625 C 15.8125 -8.164062 16.3125 -6.882812 16.3125 -5.3125 C 16.3125 -3.5625 15.617188 -2.171875 14.234375 -1.140625 C 12.859375 -0.117188 11.171875 0.390625 9.171875 0.390625 C 6.828125 0.390625 4.953125 -0.125 3.546875 -1.15625 C 2.148438 -2.195312 1.359375 -3.710938 1.171875 -5.703125 L 5.125 -5.703125 C 5.320312 -4.679688 5.785156 -3.890625 6.515625 -3.328125 C 7.242188 -2.765625 8.113281 -2.484375 9.125 -2.484375 C 10.019531 -2.484375 10.769531 -2.707031 11.375 -3.15625 C 11.976562 -3.601562 12.28125 -4.191406 12.28125 -4.921875 C 12.28125 -5.742188 11.984375 -6.40625 11.390625 -6.90625 C 10.804688 -7.414062 9.816406 -7.835938 8.421875 -8.171875 C 6.253906 -8.691406 4.640625 -9.382812 3.578125 -10.25 C 2.515625 -11.125 1.984375 -12.390625 1.984375 -14.046875 C 1.984375 -15.765625 2.65625 -17.132812 4 -18.15625 C 5.34375 -19.1875 6.976562 -19.703125 8.90625 -19.703125 Z M 8.90625 -19.703125 "/></g></g></g><g fill="#fffbed" fill-opacity="1"><g transform="translate(163.775582, 269.482875)"><g/></g></g><g fill="#fffbed" fill-opacity="1"><g transform="translate(169.903854, 269.482875)"><g><path d="M 27.734375 -19.3125 L 22.609375 0 L 17.484375 0 L 14.1875 -16.0625 L 10.71875 0 L 5.5625 0 L 0.734375 -19.3125 L 4.890625 -19.3125 L 8.140625 -2.96875 L 11.5625 -19.03125 L 16.984375 -19.03125 L 20.28125 -2.90625 L 23.765625 -19.3125 Z M 27.734375 -19.3125 "/></g></g></g><g fill="#fffbed" fill-opacity="1"><g transform="translate(198.222268, 269.482875)"><g><path d="M 16.484375 -4.875 C 16.722656 -2.570312 17.1875 -0.945312 17.875 0 L 13.65625 0 C 13.1875 -1.289062 12.867188 -2.726562 12.703125 -4.3125 C 12.441406 -6.488281 11.578125 -7.632812 10.109375 -7.75 C 9.753906 -7.769531 9.25 -7.78125 8.59375 -7.78125 L 6.359375 -7.78125 L 6.359375 0 L 2.484375 0 L 2.484375 -19.3125 L 9.546875 -19.3125 C 10.609375 -19.3125 11.539062 -19.265625 12.34375 -19.171875 C 13.875 -18.984375 15.097656 -18.472656 16.015625 -17.640625 C 16.941406 -16.816406 17.40625 -15.617188 17.40625 -14.046875 C 17.40625 -12.835938 17.066406 -11.832031 16.390625 -11.03125 C 15.722656 -10.238281 14.800781 -9.675781 13.625 -9.34375 C 15.289062 -8.707031 16.242188 -7.21875 16.484375 -4.875 Z M 6.359375 -10.65625 L 9.015625 -10.65625 C 9.773438 -10.65625 10.296875 -10.664062 10.578125 -10.6875 C 12.421875 -10.851562 13.34375 -11.773438 13.34375 -13.453125 C 13.34375 -14.335938 13.125 -14.988281 12.6875 -15.40625 C 12.25 -15.820312 11.617188 -16.085938 10.796875 -16.203125 C 10.347656 -16.253906 9.804688 -16.28125 9.171875 -16.28125 L 6.359375 -16.28125 Z M 6.359375 -10.65625 "/></g></g></g><g fill="#fffbed" fill-opacity="1"><g transform="translate(217.2225, 269.482875)"><g><path d="M 6.359375 0 L 2.484375 0 L 2.484375 -19.3125 L 6.359375 -19.3125 Z M 6.359375 0 "/></g></g></g><g fill="#fffbed" fill-opacity="1"><g transform="translate(226.093052, 269.482875)"><g><path d="M 17.609375 -16.28125 L 11.046875 -16.28125 L 11.046875 0 L 7.1875 0 L 7.1875 -16.28125 L 0.640625 -16.28125 L 0.640625 -19.3125 L 17.609375 -19.3125 Z M 17.609375 -16.28125 "/></g></g></g><g fill="#fffbed" fill-opacity="1"><g transform="translate(244.225823, 269.482875)"><g><path d="M 6.359375 0 L 2.484375 0 L 2.484375 -19.3125 L 6.359375 -19.3125 Z M 6.359375 0 "/></g></g></g><g fill="#fffbed" fill-opacity="1"><g transform="translate(253.096375, 269.482875)"><g><path d="M 19.453125 0 L 14.15625 0 L 6.21875 -14.65625 C 6.3125 -12.90625 6.359375 -10.929688 6.359375 -8.734375 L 6.359375 0 L 2.484375 0 L 2.484375 -19.3125 L 7.609375 -19.3125 L 15.734375 -4.359375 C 15.640625 -6.097656 15.59375 -8.125 15.59375 -10.4375 L 15.59375 -19.3125 L 19.421875 -19.3125 Z M 19.453125 0 "/></g></g></g><g fill="#fffbed" fill-opacity="1"><g transform="translate(275.06275, 269.482875)"><g><path d="M 11.328125 -9.84375 L 19.109375 -9.84375 L 19.109375 0 L 16 0 L 15.75 -3.140625 L 14.890625 -1.171875 C 13.828125 -0.128906 12.257812 0.390625 10.1875 0.390625 C 7.5 0.390625 5.363281 -0.5 3.78125 -2.28125 C 2.207031 -4.0625 1.421875 -6.484375 1.421875 -9.546875 C 1.421875 -12.640625 2.316406 -15.101562 4.109375 -16.9375 C 5.898438 -18.78125 8.175781 -19.703125 10.9375 -19.703125 C 13.457031 -19.703125 15.425781 -19.085938 16.84375 -17.859375 C 18.257812 -16.640625 19.070312 -15.035156 19.28125 -13.046875 L 19.3125 -12.765625 L 15.453125 -12.765625 L 15.390625 -13.046875 C 14.890625 -15.554688 13.390625 -16.8125 10.890625 -16.8125 C 9.296875 -16.8125 8 -16.175781 7 -14.90625 C 6.007812 -13.644531 5.515625 -11.929688 5.515625 -9.765625 C 5.515625 -7.429688 6 -5.632812 6.96875 -4.375 C 7.9375 -3.113281 9.207031 -2.484375 10.78125 -2.484375 C 12.03125 -2.484375 13.066406 -2.863281 13.890625 -3.625 C 14.722656 -4.394531 15.234375 -5.460938 15.421875 -6.828125 L 11.328125 -6.828125 Z M 11.328125 -9.84375 "/></g></g></g><g fill="#fffbed" fill-opacity="1"><g transform="translate(83.521225, 130.163482)"><g><path d="M 78.140625 -52.390625 L 64.78125 0 L 46.546875 0 L 39.9375 -40.78125 L 32.875 0 L 14.578125 0 L 1.96875 -52.390625 L 16.484375 -52.390625 L 23.46875 -10.625 L 30.375 -51.640625 L 49.96875 -51.640625 L 56.578125 -10.484375 L 64.171875 -52.390625 Z M 78.140625 -52.390625 "/></g></g></g><g fill="#fffbed" fill-opacity="1"><g transform="translate(160.659829, 130.163482)"><g><path d="M 46.921875 -12.75 C 47.285156 -9.820312 47.78125 -7.359375 48.40625 -5.359375 C 49.039062 -3.359375 49.863281 -1.570312 50.875 0 L 36 0 C 35.382812 -1.875 34.882812 -3.617188 34.5 -5.234375 C 34.125 -6.859375 33.8125 -8.609375 33.5625 -10.484375 C 33.207031 -13.367188 32.484375 -15.617188 31.390625 -17.234375 C 30.304688 -18.859375 28.878906 -19.71875 27.109375 -19.8125 C 26.347656 -19.863281 25.625 -19.890625 24.9375 -19.890625 C 24.257812 -19.890625 23.539062 -19.890625 22.78125 -19.890625 L 19.75 -19.890625 L 19.75 0 L 6.078125 0 L 6.078125 -52.390625 L 26.875 -52.390625 C 28.5 -52.390625 29.914062 -52.363281 31.125 -52.3125 C 32.34375 -52.269531 33.660156 -52.171875 35.078125 -52.015625 C 37.609375 -51.710938 39.945312 -51.054688 42.09375 -50.046875 C 44.25 -49.035156 45.984375 -47.566406 47.296875 -45.640625 C 48.617188 -43.710938 49.28125 -41.207031 49.28125 -38.125 C 49.28125 -31.488281 45.765625 -27.132812 38.734375 -25.0625 C 41.460938 -24.09375 43.421875 -22.582031 44.609375 -20.53125 C 45.796875 -18.488281 46.566406 -15.894531 46.921875 -12.75 Z M 19.75 -29.765625 L 24.6875 -29.765625 C 25.394531 -29.765625 26.050781 -29.765625 26.65625 -29.765625 C 27.257812 -29.765625 27.816406 -29.789062 28.328125 -29.84375 C 30.097656 -30 31.648438 -30.476562 32.984375 -31.28125 C 34.328125 -32.09375 35 -33.585938 35 -35.765625 C 35 -37.992188 34.390625 -39.5 33.171875 -40.28125 C 31.960938 -41.070312 30.472656 -41.539062 28.703125 -41.6875 C 28.191406 -41.738281 27.632812 -41.765625 27.03125 -41.765625 C 26.425781 -41.765625 25.769531 -41.765625 25.0625 -41.765625 L 19.75 -41.765625 Z M 19.75 -29.765625 "/></g></g></g><g fill="#fffbed" fill-opacity="1"><g transform="translate(212.439877, 130.163482)"><g><path d="M 19.75 0 L 6.078125 0 L 6.078125 -52.390625 L 19.75 -52.390625 Z M 19.75 0 "/></g></g></g><g fill="#fffbed" fill-opacity="1"><g transform="translate(236.27996, 130.163482)"><g><path d="M 48.75 -41.765625 L 31.734375 -41.765625 L 31.734375 0 L 18.078125 0 L 18.078125 -41.765625 L 1.0625 -41.765625 L 1.0625 -52.390625 L 48.75 -52.390625 Z M 48.75 -41.765625 "/></g></g></g><g fill="#fffbed" fill-opacity="1"><g transform="translate(284.263806, 130.163482)"><g><path d="M 46.25 -10.625 L 46.25 0 L 6.078125 0 L 6.078125 -52.390625 L 45.484375 -52.390625 L 45.484375 -41.765625 L 19.75 -41.765625 L 19.75 -31.59375 L 43.96875 -31.59375 L 43.96875 -20.953125 L 19.75 -20.953125 L 19.75 -10.625 Z M 46.25 -10.625 "/></g></g></g><g fill="#fffbed" fill-opacity="1"><g transform="translate(332.77912, 130.163482)"><g/></g></g><g fill="#fffbed" fill-opacity="1"><g transform="translate(346.1417, 130.163482)"><g><path d="M 48.75 -41.765625 L 31.734375 -41.765625 L 31.734375 0 L 18.078125 0 L 18.078125 -41.765625 L 1.0625 -41.765625 L 1.0625 -52.390625 L 48.75 -52.390625 Z M 48.75 -41.765625 "/></g></g></g><g fill="#fffbed" fill-opacity="1"><g transform="translate(394.125559, 130.163482)"><g><path d="M 30.90625 -53.453125 C 36.375 -53.453125 41.109375 -52.351562 45.109375 -50.15625 C 49.109375 -47.957031 52.207031 -44.816406 54.40625 -40.734375 C 56.613281 -36.660156 57.71875 -31.816406 57.71875 -26.203125 C 57.71875 -20.578125 56.613281 -15.726562 54.40625 -11.65625 C 52.207031 -7.582031 49.109375 -4.441406 45.109375 -2.234375 C 41.109375 -0.0351562 36.375 1.0625 30.90625 1.0625 C 25.488281 1.0625 20.765625 -0.0351562 16.734375 -2.234375 C 12.710938 -4.441406 9.597656 -7.582031 7.390625 -11.65625 C 5.191406 -15.726562 4.09375 -20.578125 4.09375 -26.203125 C 4.09375 -31.816406 5.191406 -36.660156 7.390625 -40.734375 C 9.597656 -44.816406 12.710938 -47.957031 16.734375 -50.15625 C 20.765625 -52.351562 25.488281 -53.453125 30.90625 -53.453125 Z M 30.90625 -8.953125 C 34.851562 -8.953125 37.976562 -10.445312 40.28125 -13.4375 C 42.582031 -16.425781 43.734375 -20.679688 43.734375 -26.203125 C 43.734375 -31.765625 42.582031 -36.023438 40.28125 -38.984375 C 37.976562 -41.953125 34.851562 -43.4375 30.90625 -43.4375 C 26.957031 -43.4375 23.832031 -41.953125 21.53125 -38.984375 C 19.226562 -36.023438 18.078125 -31.765625 18.078125 -26.203125 C 18.078125 -20.679688 19.226562 -16.425781 21.53125 -13.4375 C 23.832031 -10.445312 26.957031 -8.953125 30.90625 -8.953125 Z M 30.90625 -8.953125 "/></g></g></g><g fill="#fffbed" fill-opacity="1"><g transform="translate(453.953535, 130.163482)"><g><path d="M 34.015625 -52.015625 C 36.546875 -51.710938 38.910156 -50.898438 41.109375 -49.578125 C 43.316406 -48.265625 45.101562 -46.429688 46.46875 -44.078125 C 47.84375 -41.722656 48.53125 -38.828125 48.53125 -35.390625 C 48.53125 -31.941406 47.84375 -29.039062 46.46875 -26.6875 C 45.101562 -24.332031 43.316406 -22.5 41.109375 -21.1875 C 38.910156 -19.875 36.546875 -19.0625 34.015625 -18.75 C 32.597656 -18.601562 31.28125 -18.503906 30.0625 -18.453125 C 28.851562 -18.398438 27.4375 -18.375 25.8125 -18.375 L 19.75 -18.375 L 19.75 0 L 6.078125 0 L 6.078125 -52.390625 L 25.8125 -52.390625 C 27.4375 -52.390625 28.851562 -52.363281 30.0625 -52.3125 C 31.28125 -52.269531 32.597656 -52.171875 34.015625 -52.015625 Z M 28.703125 -29.078125 C 30.472656 -29.234375 31.835938 -29.828125 32.796875 -30.859375 C 33.765625 -31.898438 34.25 -33.410156 34.25 -35.390625 C 34.25 -37.359375 33.765625 -38.863281 32.796875 -39.90625 C 31.835938 -40.945312 30.472656 -41.539062 28.703125 -41.6875 C 28.191406 -41.738281 27.632812 -41.765625 27.03125 -41.765625 C 26.425781 -41.765625 25.769531 -41.765625 25.0625 -41.765625 L 19.75 -41.765625 L 19.75 -29.015625 L 25.0625 -29.015625 C 25.769531 -29.015625 26.425781 -29.015625 27.03125 -29.015625 C 27.632812 -29.015625 28.191406 -29.035156 28.703125 -29.078125 Z M 28.703125 -29.078125 "/></g></g></g><g fill="#fffbed" fill-opacity="1"><g transform="translate(502.848448, 130.163482)"><g><path d="M 19.75 0 L 6.078125 0 L 6.078125 -52.390625 L 19.75 -52.390625 Z M 19.75 0 "/></g></g></g><g fill="#fffbed" fill-opacity="1"><g transform="translate(526.688543, 130.163482)"><g><path d="M 30 -53.453125 C 35.007812 -53.453125 39.195312 -52.640625 42.5625 -51.015625 C 45.925781 -49.398438 48.53125 -47.210938 50.375 -44.453125 C 52.226562 -41.703125 53.332031 -38.601562 53.6875 -35.15625 L 53.765625 -34.40625 L 40.09375 -34.40625 L 39.9375 -35.15625 C 38.820312 -40.675781 35.457031 -43.4375 29.84375 -43.4375 C 26.601562 -43.4375 23.878906 -42.054688 21.671875 -39.296875 C 19.472656 -36.535156 18.375 -32.320312 18.375 -26.65625 C 18.375 -22.25 18.914062 -18.753906 20 -16.171875 C 21.09375 -13.585938 22.507812 -11.738281 24.25 -10.625 C 26 -9.507812 27.890625 -8.953125 29.921875 -8.953125 C 32.597656 -8.953125 34.769531 -9.738281 36.4375 -11.3125 C 38.113281 -12.882812 39.234375 -15.113281 39.796875 -18 L 39.9375 -18.75 L 53.609375 -18.75 L 53.53125 -18 C 53.125 -13.789062 51.84375 -10.269531 49.6875 -7.4375 C 47.539062 -4.601562 44.734375 -2.476562 41.265625 -1.0625 C 37.804688 0.351562 33.875 1.0625 29.46875 1.0625 C 24.8125 1.0625 20.554688 0.0625 16.703125 -1.9375 C 12.859375 -3.9375 9.796875 -6.9375 7.515625 -10.9375 C 5.234375 -14.9375 4.09375 -19.894531 4.09375 -25.8125 C 4.09375 -31.894531 5.269531 -36.984375 7.625 -41.078125 C 9.976562 -45.179688 13.117188 -48.269531 17.046875 -50.34375 C 20.972656 -52.414062 25.289062 -53.453125 30 -53.453125 Z M 30 -53.453125 "/></g></g></g><g fill="#fffbed" fill-opacity="1"><g transform="translate(83.521225, 203.627626)"><g><path d="M 48.75 -41.765625 L 31.734375 -41.765625 L 31.734375 0 L 18.078125 0 L 18.078125 -41.765625 L 1.0625 -41.765625 L 1.0625 -52.390625 L 48.75 -52.390625 Z M 48.75 -41.765625 "/></g></g></g><g fill="#fffbed" fill-opacity="1"><g transform="translate(131.505084, 203.627626)"><g><path d="M 19.75 0 L 6.078125 0 L 6.078125 -52.390625 L 19.75 -52.390625 Z M 19.75 0 "/></g></g></g><g fill="#fffbed" fill-opacity="1"><g transform="translate(155.345167, 203.627626)"><g><path d="M 48.75 -41.765625 L 31.734375 -41.765625 L 31.734375 0 L 18.078125 0 L 18.078125 -41.765625 L 1.0625 -41.765625 L 1.0625 -52.390625 L 48.75 -52.390625 Z M 48.75 -41.765625 "/></g></g></g><g fill="#fffbed" fill-opacity="1"><g transform="translate(203.329025, 203.627626)"><g><path d="M 46.25 -11.546875 L 46.25 0 L 6.078125 0 L 6.078125 -52.390625 L 19.75 -52.390625 L 19.75 -11.546875 Z M 46.25 -11.546875 "/></g></g></g><g fill="#fffbed" fill-opacity="1"><g transform="translate(251.009179, 203.627626)"><g><path d="M 46.25 -10.625 L 46.25 0 L 6.078125 0 L 6.078125 -52.390625 L 45.484375 -52.390625 L 45.484375 -41.765625 L 19.75 -41.765625 L 19.75 -31.59375 L 43.96875 -31.59375 L 43.96875 -20.953125 L 19.75 -20.953125 L 19.75 -10.625 Z M 46.25 -10.625 "/></g></g></g><g fill="#fffbed" fill-opacity="1"><g transform="translate(299.524493, 203.627626)"><g/></g></g><g fill="#fffbed" fill-opacity="1"><g transform="translate(312.887074, 203.627626)"><g><path d="M 54.375 -52.390625 L 54.375 0 L 40.703125 0 L 40.703125 -20.34375 L 19.75 -20.34375 L 19.75 0 L 6.078125 0 L 6.078125 -52.390625 L 19.75 -52.390625 L 19.75 -30.984375 L 40.703125 -30.984375 L 40.703125 -52.390625 Z M 54.375 -52.390625 "/></g></g></g><g fill="#fffbed" fill-opacity="1"><g transform="translate(371.348423, 203.627626)"><g><path d="M 46.25 -10.625 L 46.25 0 L 6.078125 0 L 6.078125 -52.390625 L 45.484375 -52.390625 L 45.484375 -41.765625 L 19.75 -41.765625 L 19.75 -31.59375 L 43.96875 -31.59375 L 43.96875 -20.953125 L 19.75 -20.953125 L 19.75 -10.625 Z M 46.25 -10.625 "/></g></g></g><g fill="#fffbed" fill-opacity="1"><g transform="translate(419.863737, 203.627626)"><g><path d="M 46.921875 -12.75 C 47.285156 -9.820312 47.78125 -7.359375 48.40625 -5.359375 C 49.039062 -3.359375 49.863281 -1.570312 50.875 0 L 36 0 C 35.382812 -1.875 34.882812 -3.617188 34.5 -5.234375 C 34.125 -6.859375 33.8125 -8.609375 33.5625 -10.484375 C 33.207031 -13.367188 32.484375 -15.617188 31.390625 -17.234375 C 30.304688 -18.859375 28.878906 -19.71875 27.109375 -19.8125 C 26.347656 -19.863281 25.625 -19.890625 24.9375 -19.890625 C 24.257812 -19.890625 23.539062 -19.890625 22.78125 -19.890625 L 19.75 -19.890625 L 19.75 0 L 6.078125 0 L 6.078125 -52.390625 L 26.875 -52.390625 C 28.5 -52.390625 29.914062 -52.363281 31.125 -52.3125 C 32.34375 -52.269531 33.660156 -52.171875 35.078125 -52.015625 C 37.609375 -51.710938 39.945312 -51.054688 42.09375 -50.046875 C 44.25 -49.035156 45.984375 -47.566406 47.296875 -45.640625 C 48.617188 -43.710938 49.28125 -41.207031 49.28125 -38.125 C 49.28125 -31.488281 45.765625 -27.132812 38.734375 -25.0625 C 41.460938 -24.09375 43.421875 -22.582031 44.609375 -20.53125 C 45.796875 -18.488281 46.566406 -15.894531 46.921875 -12.75 Z M 19.75 -29.765625 L 24.6875 -29.765625 C 25.394531 -29.765625 26.050781 -29.765625 26.65625 -29.765625 C 27.257812 -29.765625 27.816406 -29.789062 28.328125 -29.84375 C 30.097656 -30 31.648438 -30.476562 32.984375 -31.28125 C 34.328125 -32.09375 35 -33.585938 35 -35.765625 C 35 -37.992188 34.390625 -39.5 33.171875 -40.28125 C 31.960938 -41.070312 30.472656 -41.539062 28.703125 -41.6875 C 28.191406 -41.738281 27.632812 -41.765625 27.03125 -41.765625 C 26.425781 -41.765625 25.769531 -41.765625 25.0625 -41.765625 L 19.75 -41.765625 Z M 19.75 -29.765625 "/></g></g></g><g fill="#fffbed" fill-opacity="1"><g transform="translate(471.643784, 203.627626)"><g><path d="M 46.25 -10.625 L 46.25 0 L 6.078125 0 L 6.078125 -52.390625 L 45.484375 -52.390625 L 45.484375 -41.765625 L 19.75 -41.765625 L 19.75 -31.59375 L 43.96875 -31.59375 L 43.96875 -20.953125 L 19.75 -20.953125 L 19.75 -10.625 Z M 46.25 -10.625 "/></g></g></g><g fill="#fffbed" fill-opacity="1"><g transform="translate(83.521225, 454.916946)"><g><path d="M 17.328125 -15.171875 L 17.328125 0 L 15.4375 0 L 15.4375 -7.796875 C 15.4375 -8.753906 15.4375 -9.726562 15.4375 -10.71875 C 15.445312 -11.71875 15.460938 -12.628906 15.484375 -13.453125 C 15.234375 -12.628906 14.941406 -11.71875 14.609375 -10.71875 C 14.273438 -9.71875 13.945312 -8.753906 13.625 -7.828125 L 10.953125 0 L 8.578125 0 L 5.84375 -7.875 C 5.539062 -8.78125 5.226562 -9.726562 4.90625 -10.71875 C 4.582031 -11.707031 4.296875 -12.601562 4.046875 -13.40625 C 4.078125 -12.582031 4.09375 -11.675781 4.09375 -10.6875 C 4.09375 -9.707031 4.09375 -8.742188 4.09375 -7.796875 L 4.09375 0 L 2.203125 0 L 2.203125 -15.171875 L 5.3125 -15.171875 L 9.8125 -1.609375 L 14.265625 -15.171875 Z M 17.328125 -15.171875 "/></g></g></g><g fill="#fffbed" fill-opacity="1"><g transform="translate(103.110273, 454.916946)"><g><path d="M 11.8125 -16.15625 L 11.8125 0 L 9.921875 0 L 9.921875 -1.875 L 9.03125 -0.609375 C 8.707031 -0.335938 8.265625 -0.117188 7.703125 0.046875 C 7.140625 0.222656 6.554688 0.3125 5.953125 0.3125 C 4.828125 0.3125 3.867188 0.0507812 3.078125 -0.46875 C 2.285156 -0.988281 1.679688 -1.695312 1.265625 -2.59375 C 0.859375 -3.5 0.65625 -4.519531 0.65625 -5.65625 C 0.65625 -7.082031 0.921875 -8.257812 1.453125 -9.1875 C 1.984375 -10.125 2.679688 -10.816406 3.546875 -11.265625 C 4.421875 -11.722656 5.359375 -11.953125 6.359375 -11.953125 C 6.835938 -11.953125 7.347656 -11.882812 7.890625 -11.75 C 8.429688 -11.625 8.847656 -11.4375 9.140625 -11.1875 L 9.921875 -10.046875 L 9.921875 -16.15625 Z M 6.25 -1.140625 C 6.882812 -1.140625 7.476562 -1.289062 8.03125 -1.59375 C 8.59375 -1.894531 9.046875 -2.378906 9.390625 -3.046875 C 9.742188 -3.710938 9.921875 -4.601562 9.921875 -5.71875 L 9.921875 -6.359375 C 9.921875 -7.367188 9.738281 -8.175781 9.375 -8.78125 C 9.019531 -9.382812 8.566406 -9.820312 8.015625 -10.09375 C 7.460938 -10.375 6.910156 -10.515625 6.359375 -10.515625 C 5.328125 -10.515625 4.460938 -10.117188 3.765625 -9.328125 C 3.066406 -8.546875 2.71875 -7.394531 2.71875 -5.875 C 2.71875 -4.988281 2.847656 -4.191406 3.109375 -3.484375 C 3.378906 -2.773438 3.773438 -2.207031 4.296875 -1.78125 C 4.816406 -1.351562 5.46875 -1.140625 6.25 -1.140625 Z M 6.25 -1.140625 "/></g></g></g><g fill="#fffbed" fill-opacity="1"><g transform="translate(117.180996, 454.916946)"><g/></g></g><g fill="#fffbed" fill-opacity="1"><g transform="translate(122.479562, 454.916946)"><g><path d="M 12.171875 -3.984375 C 12.265625 -2.992188 12.378906 -2.179688 12.515625 -1.546875 C 12.660156 -0.921875 12.882812 -0.40625 13.1875 0 L 11.109375 0 C 10.898438 -0.476562 10.734375 -0.992188 10.609375 -1.546875 C 10.492188 -2.109375 10.382812 -2.859375 10.28125 -3.796875 C 10.195312 -4.578125 9.984375 -5.207031 9.640625 -5.6875 C 9.304688 -6.175781 8.769531 -6.445312 8.03125 -6.5 C 7.851562 -6.519531 7.671875 -6.53125 7.484375 -6.53125 C 7.296875 -6.53125 7.117188 -6.53125 6.953125 -6.53125 L 4.09375 -6.53125 L 4.09375 0 L 2.203125 0 L 2.203125 -15.171875 L 7.171875 -15.171875 C 7.546875 -15.171875 7.882812 -15.164062 8.1875 -15.15625 C 8.488281 -15.144531 8.804688 -15.117188 9.140625 -15.078125 C 10.242188 -14.929688 11.148438 -14.539062 11.859375 -13.90625 C 12.566406 -13.269531 12.921875 -12.3125 12.921875 -11.03125 C 12.921875 -10.375 12.789062 -9.800781 12.53125 -9.3125 C 12.28125 -8.832031 11.945312 -8.4375 11.53125 -8.125 C 11.125 -7.820312 10.6875 -7.597656 10.21875 -7.453125 C 10.832031 -7.171875 11.296875 -6.710938 11.609375 -6.078125 C 11.929688 -5.441406 12.117188 -4.742188 12.171875 -3.984375 Z M 4.09375 -8.0625 L 6.984375 -8.0625 C 7.328125 -8.0625 7.609375 -8.066406 7.828125 -8.078125 C 8.046875 -8.085938 8.257812 -8.097656 8.46875 -8.109375 C 9.164062 -8.179688 9.742188 -8.441406 10.203125 -8.890625 C 10.671875 -9.347656 10.90625 -10.003906 10.90625 -10.859375 C 10.90625 -11.710938 10.707031 -12.347656 10.3125 -12.765625 C 9.925781 -13.179688 9.382812 -13.441406 8.6875 -13.546875 C 8.320312 -13.597656 7.816406 -13.625 7.171875 -13.625 L 4.09375 -13.625 Z M 4.09375 -8.0625 "/></g></g></g><g fill="#fffbed" fill-opacity="1"><g transform="translate(136.638223, 454.916946)"><g><path d="M 8.3125 0 L 8.109375 -1.671875 L 7.46875 -0.421875 C 7.070312 -0.140625 6.625 0.0507812 6.125 0.15625 C 5.632812 0.257812 5.109375 0.3125 4.546875 0.3125 C 3.847656 0.3125 3.210938 0.179688 2.640625 -0.078125 C 2.078125 -0.335938 1.628906 -0.710938 1.296875 -1.203125 C 0.960938 -1.691406 0.796875 -2.296875 0.796875 -3.015625 C 0.796875 -4.328125 1.3125 -5.320312 2.34375 -6 C 3.382812 -6.675781 5.050781 -7.015625 7.34375 -7.015625 L 8.09375 -7.015625 L 8.09375 -7.328125 C 8.09375 -7.566406 8.09375 -7.800781 8.09375 -8.03125 C 8.09375 -8.269531 8.078125 -8.503906 8.046875 -8.734375 C 8.003906 -9.273438 7.8125 -9.707031 7.46875 -10.03125 C 7.125 -10.351562 6.5625 -10.515625 5.78125 -10.515625 C 4.988281 -10.515625 4.390625 -10.300781 3.984375 -9.875 C 3.585938 -9.457031 3.351562 -8.847656 3.28125 -8.046875 L 1.296875 -8.046875 C 1.378906 -9.296875 1.820312 -10.257812 2.625 -10.9375 C 3.4375 -11.613281 4.488281 -11.953125 5.78125 -11.953125 C 7.175781 -11.953125 8.1875 -11.675781 8.8125 -11.125 C 9.445312 -10.582031 9.816406 -9.832031 9.921875 -8.875 C 9.941406 -8.644531 9.957031 -8.394531 9.96875 -8.125 C 9.976562 -7.851562 9.984375 -7.59375 9.984375 -7.34375 L 9.984375 -2.96875 C 9.984375 -2.53125 9.992188 -2.085938 10.015625 -1.640625 C 10.046875 -1.191406 10.109375 -0.644531 10.203125 0 Z M 5.1875 -1.140625 C 6.0625 -1.140625 6.765625 -1.421875 7.296875 -1.984375 C 7.828125 -2.554688 8.09375 -3.367188 8.09375 -4.421875 L 8.09375 -5.609375 C 6.488281 -5.722656 5.210938 -5.59375 4.265625 -5.21875 C 3.328125 -4.84375 2.859375 -4.160156 2.859375 -3.171875 C 2.859375 -2.460938 3.066406 -1.945312 3.484375 -1.625 C 3.898438 -1.300781 4.46875 -1.140625 5.1875 -1.140625 Z M 5.1875 -1.140625 "/></g></g></g><g fill="#fffbed" fill-opacity="1"><g transform="translate(148.862174, 454.916946)"><g><path d="M 8.859375 0 L 4.609375 -4.921875 L 3.515625 -3.71875 L 3.515625 0 L 1.625 0 L 1.625 -16.15625 L 3.515625 -16.15625 L 3.515625 -5.78125 L 8.953125 -11.65625 L 11.359375 -11.65625 L 5.9375 -6.15625 L 11.4375 0 Z M 8.859375 0 "/></g></g></g><g fill="#fffbed" fill-opacity="1"><g transform="translate(160.88825, 454.916946)"><g><path d="M 2.578125 -15.484375 C 2.910156 -15.484375 3.191406 -15.363281 3.421875 -15.125 C 3.660156 -14.894531 3.78125 -14.609375 3.78125 -14.265625 C 3.78125 -13.929688 3.660156 -13.644531 3.421875 -13.40625 C 3.191406 -13.175781 2.910156 -13.0625 2.578125 -13.0625 C 2.234375 -13.0625 1.941406 -13.175781 1.703125 -13.40625 C 1.472656 -13.644531 1.359375 -13.929688 1.359375 -14.265625 C 1.359375 -14.609375 1.472656 -14.894531 1.703125 -15.125 C 1.941406 -15.363281 2.234375 -15.484375 2.578125 -15.484375 Z M 3.515625 0 L 1.625 0 L 1.625 -11.65625 L 3.515625 -11.65625 Z M 3.515625 0 "/></g></g></g><g fill="#fffbed" fill-opacity="1"><g transform="translate(166.670491, 454.916946)"><g><path d="M 7.46875 -11.953125 C 8.613281 -11.953125 9.578125 -11.691406 10.359375 -11.171875 C 11.148438 -10.660156 11.75 -9.957031 12.15625 -9.0625 C 12.5625 -8.164062 12.765625 -7.144531 12.765625 -6 C 12.765625 -4.5625 12.5 -3.378906 11.96875 -2.453125 C 11.445312 -1.523438 10.753906 -0.832031 9.890625 -0.375 C 9.023438 0.0820312 8.085938 0.3125 7.078125 0.3125 C 6.597656 0.3125 6.085938 0.238281 5.546875 0.09375 C 5.003906 -0.0390625 4.582031 -0.226562 4.28125 -0.46875 L 3.515625 -1.609375 L 3.515625 0 L 1.625 0 L 1.625 -16.15625 L 3.515625 -16.15625 L 3.515625 -9.78125 L 4.390625 -11.03125 C 4.734375 -11.3125 5.1875 -11.535156 5.75 -11.703125 C 6.3125 -11.867188 6.882812 -11.953125 7.46875 -11.953125 Z M 7.078125 -1.140625 C 8.109375 -1.140625 8.96875 -1.53125 9.65625 -2.3125 C 10.351562 -3.101562 10.703125 -4.257812 10.703125 -5.78125 C 10.703125 -6.65625 10.570312 -7.453125 10.3125 -8.171875 C 10.050781 -8.890625 9.660156 -9.457031 9.140625 -9.875 C 8.617188 -10.300781 7.96875 -10.515625 7.1875 -10.515625 C 6.539062 -10.515625 5.9375 -10.363281 5.375 -10.0625 C 4.820312 -9.757812 4.375 -9.273438 4.03125 -8.609375 C 3.6875 -7.941406 3.515625 -7.050781 3.515625 -5.9375 L 3.515625 -5.296875 C 3.515625 -4.296875 3.691406 -3.488281 4.046875 -2.875 C 4.410156 -2.257812 4.867188 -1.816406 5.421875 -1.546875 C 5.972656 -1.273438 6.523438 -1.140625 7.078125 -1.140625 Z M 7.078125 -1.140625 "/></g></g></g><g fill="#fffbed" fill-opacity="1"><g transform="translate(180.653279, 454.916946)"><g><path d="M 11.296875 -11.65625 L 11.296875 0 L 9.40625 0 L 9.40625 -1.984375 L 8.6875 -0.609375 C 8.1875 -0.242188 7.703125 0 7.234375 0.125 C 6.773438 0.25 6.25 0.3125 5.65625 0.3125 C 4.445312 0.3125 3.492188 0.0195312 2.796875 -0.5625 C 2.109375 -1.15625 1.695312 -1.851562 1.5625 -2.65625 C 1.519531 -2.945312 1.488281 -3.234375 1.46875 -3.515625 C 1.457031 -3.804688 1.453125 -4.1875 1.453125 -4.65625 L 1.453125 -11.65625 L 3.34375 -11.65625 L 3.34375 -5.015625 C 3.34375 -4.828125 3.347656 -4.582031 3.359375 -4.28125 C 3.378906 -3.988281 3.398438 -3.695312 3.421875 -3.40625 C 3.515625 -2.75 3.789062 -2.210938 4.25 -1.796875 C 4.71875 -1.390625 5.347656 -1.1875 6.140625 -1.1875 C 6.753906 -1.1875 7.304688 -1.351562 7.796875 -1.6875 C 8.285156 -2.03125 8.675781 -2.59375 8.96875 -3.375 C 9.257812 -4.15625 9.40625 -5.207031 9.40625 -6.53125 L 9.40625 -11.65625 Z M 11.296875 -11.65625 "/></g></g></g><g fill="#fffbed" fill-opacity="1"><g transform="translate(194.218344, 454.916946)"><g><path d="M 3.421875 -16.15625 L 3.421875 -3.34375 C 3.421875 -3.164062 3.421875 -2.984375 3.421875 -2.796875 C 3.421875 -2.617188 3.429688 -2.4375 3.453125 -2.25 C 3.484375 -1.875 3.597656 -1.617188 3.796875 -1.484375 C 4.003906 -1.347656 4.363281 -1.304688 4.875 -1.359375 L 4.875 0 C 4.675781 0.03125 4.457031 0.0507812 4.21875 0.0625 C 3.988281 0.0820312 3.765625 0.09375 3.546875 0.09375 C 2.992188 0.09375 2.53125 -0.0234375 2.15625 -0.265625 C 1.789062 -0.515625 1.59375 -1.003906 1.5625 -1.734375 C 1.539062 -1.941406 1.53125 -2.171875 1.53125 -2.421875 C 1.53125 -2.671875 1.53125 -2.957031 1.53125 -3.28125 L 1.53125 -16.15625 Z M 3.421875 -16.15625 "/></g></g></g><g fill="#fffbed" fill-opacity="1"><g transform="translate(200.198465, 454.916946)"><g/></g></g><g fill="#fffbed" fill-opacity="1"><g transform="translate(205.497034, 454.916946)"><g><path d="M 4.09375 0 L 2.203125 0 L 2.203125 -15.171875 L 4.09375 -15.171875 Z M 4.09375 0 "/></g></g></g><g fill="#fffbed" fill-opacity="1"><g transform="translate(211.850897, 454.916946)"><g><path d="M 5.015625 -11.953125 C 6.316406 -11.953125 7.328125 -11.613281 8.046875 -10.9375 C 8.765625 -10.269531 9.179688 -9.398438 9.296875 -8.328125 L 7.328125 -8.328125 C 7.191406 -9.015625 6.914062 -9.550781 6.5 -9.9375 C 6.09375 -10.320312 5.546875 -10.515625 4.859375 -10.515625 C 4.203125 -10.515625 3.710938 -10.351562 3.390625 -10.03125 C 3.078125 -9.707031 2.921875 -9.285156 2.921875 -8.765625 C 2.921875 -8.179688 3.144531 -7.742188 3.59375 -7.453125 C 4.050781 -7.171875 4.675781 -6.929688 5.46875 -6.734375 C 6.820312 -6.378906 7.820312 -5.914062 8.46875 -5.34375 C 9.113281 -4.769531 9.4375 -3.984375 9.4375 -2.984375 C 9.4375 -2.253906 9.242188 -1.644531 8.859375 -1.15625 C 8.472656 -0.664062 7.953125 -0.296875 7.296875 -0.046875 C 6.648438 0.191406 5.914062 0.3125 5.09375 0.3125 C 3.894531 0.3125 2.878906 0.0195312 2.046875 -0.5625 C 1.210938 -1.15625 0.707031 -2.109375 0.53125 -3.421875 L 2.5 -3.421875 C 2.664062 -2.578125 2.992188 -1.984375 3.484375 -1.640625 C 3.972656 -1.304688 4.554688 -1.140625 5.234375 -1.140625 C 5.859375 -1.140625 6.390625 -1.28125 6.828125 -1.5625 C 7.273438 -1.851562 7.5 -2.28125 7.5 -2.84375 C 7.5 -3.394531 7.285156 -3.835938 6.859375 -4.171875 C 6.429688 -4.515625 5.726562 -4.816406 4.75 -5.078125 C 4.0625 -5.265625 3.429688 -5.5 2.859375 -5.78125 C 2.285156 -6.0625 1.828125 -6.425781 1.484375 -6.875 C 1.148438 -7.320312 0.984375 -7.878906 0.984375 -8.546875 C 0.984375 -9.617188 1.351562 -10.453125 2.09375 -11.046875 C 2.832031 -11.648438 3.804688 -11.953125 5.015625 -11.953125 Z M 5.015625 -11.953125 "/></g></g></g><g fill="#fffbed" fill-opacity="1"><g transform="translate(222.491913, 454.916946)"><g><path d="M 3.421875 -16.15625 L 3.421875 -3.34375 C 3.421875 -3.164062 3.421875 -2.984375 3.421875 -2.796875 C 3.421875 -2.617188 3.429688 -2.4375 3.453125 -2.25 C 3.484375 -1.875 3.597656 -1.617188 3.796875 -1.484375 C 4.003906 -1.347656 4.363281 -1.304688 4.875 -1.359375 L 4.875 0 C 4.675781 0.03125 4.457031 0.0507812 4.21875 0.0625 C 3.988281 0.0820312 3.765625 0.09375 3.546875 0.09375 C 2.992188 0.09375 2.53125 -0.0234375 2.15625 -0.265625 C 1.789062 -0.515625 1.59375 -1.003906 1.5625 -1.734375 C 1.539062 -1.941406 1.53125 -2.171875 1.53125 -2.421875 C 1.53125 -2.671875 1.53125 -2.957031 1.53125 -3.28125 L 1.53125 -16.15625 Z M 3.421875 -16.15625 "/></g></g></g><g fill="#fffbed" fill-opacity="1"><g transform="translate(228.472034, 454.916946)"><g><path d="M 8.3125 0 L 8.109375 -1.671875 L 7.46875 -0.421875 C 7.070312 -0.140625 6.625 0.0507812 6.125 0.15625 C 5.632812 0.257812 5.109375 0.3125 4.546875 0.3125 C 3.847656 0.3125 3.210938 0.179688 2.640625 -0.078125 C 2.078125 -0.335938 1.628906 -0.710938 1.296875 -1.203125 C 0.960938 -1.691406 0.796875 -2.296875 0.796875 -3.015625 C 0.796875 -4.328125 1.3125 -5.320312 2.34375 -6 C 3.382812 -6.675781 5.050781 -7.015625 7.34375 -7.015625 L 8.09375 -7.015625 L 8.09375 -7.328125 C 8.09375 -7.566406 8.09375 -7.800781 8.09375 -8.03125 C 8.09375 -8.269531 8.078125 -8.503906 8.046875 -8.734375 C 8.003906 -9.273438 7.8125 -9.707031 7.46875 -10.03125 C 7.125 -10.351562 6.5625 -10.515625 5.78125 -10.515625 C 4.988281 -10.515625 4.390625 -10.300781 3.984375 -9.875 C 3.585938 -9.457031 3.351562 -8.847656 3.28125 -8.046875 L 1.296875 -8.046875 C 1.378906 -9.296875 1.820312 -10.257812 2.625 -10.9375 C 3.4375 -11.613281 4.488281 -11.953125 5.78125 -11.953125 C 7.175781 -11.953125 8.1875 -11.675781 8.8125 -11.125 C 9.445312 -10.582031 9.816406 -9.832031 9.921875 -8.875 C 9.941406 -8.644531 9.957031 -8.394531 9.96875 -8.125 C 9.976562 -7.851562 9.984375 -7.59375 9.984375 -7.34375 L 9.984375 -2.96875 C 9.984375 -2.53125 9.992188 -2.085938 10.015625 -1.640625 C 10.046875 -1.191406 10.109375 -0.644531 10.203125 0 Z M 5.1875 -1.140625 C 6.0625 -1.140625 6.765625 -1.421875 7.296875 -1.984375 C 7.828125 -2.554688 8.09375 -3.367188 8.09375 -4.421875 L 8.09375 -5.609375 C 6.488281 -5.722656 5.210938 -5.59375 4.265625 -5.21875 C 3.328125 -4.84375 2.859375 -4.160156 2.859375 -3.171875 C 2.859375 -2.460938 3.066406 -1.945312 3.484375 -1.625 C 3.898438 -1.300781 4.46875 -1.140625 5.1875 -1.140625 Z M 5.1875 -1.140625 "/></g></g></g><g fill="#fffbed" fill-opacity="1"><g transform="translate(240.695991, 454.916946)"><g><path d="M 17.125 -9.125 C 17.164062 -8.832031 17.191406 -8.539062 17.203125 -8.25 C 17.222656 -7.96875 17.234375 -7.59375 17.234375 -7.125 L 17.234375 0 L 15.34375 0 L 15.34375 -6.25 C 15.34375 -7.226562 15.3125 -7.984375 15.25 -8.515625 C 15.164062 -9.171875 14.921875 -9.660156 14.515625 -9.984375 C 14.117188 -10.304688 13.585938 -10.46875 12.921875 -10.46875 C 12.441406 -10.46875 12.003906 -10.316406 11.609375 -10.015625 C 11.222656 -9.722656 10.921875 -9.238281 10.703125 -8.5625 C 10.484375 -7.882812 10.375 -6.953125 10.375 -5.765625 L 10.375 0 L 8.484375 0 L 8.484375 -6.25 C 8.484375 -7.226562 8.453125 -7.984375 8.390625 -8.515625 C 8.304688 -9.171875 8.0625 -9.660156 7.65625 -9.984375 C 7.257812 -10.304688 6.726562 -10.46875 6.0625 -10.46875 C 5.582031 -10.46875 5.144531 -10.316406 4.75 -10.015625 C 4.363281 -9.722656 4.0625 -9.238281 3.84375 -8.5625 C 3.625 -7.882812 3.515625 -6.953125 3.515625 -5.765625 L 3.515625 0 L 1.625 0 L 1.625 -11.65625 L 3.515625 -11.65625 L 3.515625 -9.953125 L 4.265625 -11.28125 C 4.554688 -11.53125 4.910156 -11.703125 5.328125 -11.796875 C 5.742188 -11.898438 6.210938 -11.953125 6.734375 -11.953125 C 7.617188 -11.953125 8.34375 -11.75 8.90625 -11.34375 C 9.476562 -10.945312 9.875 -10.425781 10.09375 -9.78125 L 11.125 -11.28125 C 11.414062 -11.53125 11.769531 -11.703125 12.1875 -11.796875 C 12.601562 -11.898438 13.070312 -11.953125 13.59375 -11.953125 C 14.625 -11.953125 15.4375 -11.679688 16.03125 -11.140625 C 16.625 -10.597656 16.988281 -9.925781 17.125 -9.125 Z M 17.125 -9.125 "/></g></g></g><g clip-path="url(#15c0152096)"><path fill="#dd735d" d="M 1031.242188 278.167969 L 977.445312 484.292969 C 975.246094 492.710938 967.636719 498.585938 958.933594 498.585938 L 901.710938 498.585938 C 896.335938 498.585938 891.136719 500.484375 887.011719 503.933594 L 872.246094 516.328125 C 869.875 518.308594 866.332031 517.933594 864.460938 515.46875 L 858.382812 507.53125 C 854.058594 501.886719 847.347656 498.574219 840.234375 498.574219 L 792.015625 498.574219 C 791.449219 498.574219 790.898438 498.53125 790.34375 498.464844 C 790.316406 498.464844 790.277344 498.449219 790.25 498.449219 C 790.222656 498.449219 790.195312 498.4375 790.171875 498.4375 C 789.820312 498.382812 789.46875 498.328125 789.117188 498.25 C 789.023438 498.222656 788.917969 498.207031 788.824219 498.195312 C 788.824219 498.195312 788.808594 498.195312 788.808594 498.195312 C 788.796875 498.195312 788.78125 498.183594 788.769531 498.183594 C 788.335938 498.074219 787.921875 497.953125 787.503906 497.789062 C 787.382812 497.75 787.261719 497.695312 787.152344 497.644531 C 786.855469 497.523438 786.574219 497.398438 786.289062 497.265625 C 786.195312 497.226562 786.101562 497.183594 786.007812 497.144531 C 785.941406 497.105469 785.871094 497.0625 785.804688 497.035156 C 785.5625 496.902344 785.332031 496.765625 785.105469 496.632812 C 784.726562 496.402344 784.375 496.148438 784.027344 495.890625 C 783.933594 495.824219 783.851562 495.757812 783.757812 495.6875 C 783.5 495.472656 783.246094 495.257812 783.003906 495.027344 C 782.949219 494.976562 782.894531 494.933594 782.839844 494.878906 C 782.625 494.679688 782.421875 494.476562 782.234375 494.261719 C 782.207031 494.234375 782.195312 494.207031 782.167969 494.195312 C 781.480469 493.4375 780.886719 492.605469 780.402344 491.714844 C 780.386719 491.703125 780.386719 491.6875 780.375 491.675781 C 780.121094 491.214844 779.890625 490.730469 779.703125 490.234375 C 779.703125 490.234375 779.703125 490.21875 779.703125 490.21875 C 779.5 489.734375 779.335938 489.222656 779.203125 488.710938 C 779.066406 488.183594 778.960938 487.660156 778.878906 487.121094 C 778.878906 487.105469 778.878906 487.078125 778.867188 487.066406 C 778.800781 486.566406 778.757812 486.070312 778.757812 485.558594 C 778.757812 485.488281 778.746094 485.421875 778.746094 485.355469 C 778.746094 484.898438 778.773438 484.425781 778.824219 483.953125 C 778.839844 483.847656 778.839844 483.753906 778.851562 483.644531 C 778.921875 483.078125 779.027344 482.527344 779.175781 481.960938 L 832.972656 275.839844 C 835.167969 267.417969 842.78125 261.542969 851.484375 261.542969 L 901.875 261.542969 C 903.652344 260.234375 905.96875 259.144531 909 258.539062 C 915.871094 257.164062 921.113281 259.347656 924.386719 261.542969 L 931.40625 261.542969 C 934.574219 258.753906 940.21875 255.519531 948.585938 257.003906 C 952.773438 257.742188 955.859375 259.480469 958.125 261.542969 L 1018.414062 261.542969 C 1027.078125 261.53125 1033.4375 269.75 1031.242188 278.167969 Z M 789.105469 415.011719 L 771.023438 484.304688 C 768.828125 492.726562 761.214844 498.597656 752.511719 498.597656 L 695.292969 498.597656 C 689.917969 498.597656 684.71875 500.5 680.59375 503.949219 L 665.828125 516.34375 C 663.457031 518.324219 659.914062 517.945312 658.039062 515.480469 L 651.964844 507.546875 C 647.640625 501.898438 640.929688 498.585938 633.816406 498.585938 L 585.597656 498.585938 C 576.894531 498.585938 570.535156 490.367188 572.742188 481.945312 L 576.949219 465.832031 L 573.621094 454.582031 L 578.832031 456.414062 C 579.007812 456.414062 579.238281 456.414062 579.492188 456.414062 C 579.546875 456.414062 579.589844 456.414062 579.640625 456.414062 C 579.804688 456.414062 579.980469 456.414062 580.167969 456.414062 C 579.882812 456.414062 579.628906 456.414062 579.414062 456.414062 L 583.414062 441.097656 C 582.269531 440.03125 580.085938 437.996094 577.378906 435.398438 L 572.878906 452.65625 L 572.71875 453.304688 L 564.621094 484.304688 C 562.421875 492.726562 554.8125 498.597656 546.109375 498.597656 L 488.863281 498.597656 C 483.484375 498.597656 478.285156 500.5 474.164062 503.949219 L 459.394531 516.34375 C 457.023438 518.324219 453.480469 517.945312 451.609375 515.480469 L 445.53125 507.546875 C 445.007812 506.859375 444.453125 506.210938 443.863281 505.605469 C 443.847656 505.589844 443.835938 505.578125 443.820312 505.566406 C 443.242188 504.957031 442.621094 504.394531 441.976562 503.867188 C 441.960938 503.855469 441.933594 503.839844 441.921875 503.828125 C 441.273438 503.300781 440.613281 502.804688 439.914062 502.34375 C 439.902344 502.332031 439.875 502.316406 439.859375 502.304688 C 439.160156 501.847656 438.433594 501.429688 437.691406 501.050781 C 437.675781 501.050781 437.664062 501.039062 437.652344 501.039062 C 436.894531 500.660156 436.128906 500.324219 435.332031 500.027344 C 435.332031 500.027344 435.320312 500.027344 435.320312 500.027344 C 432.933594 499.136719 430.375 498.652344 427.773438 498.597656 L 427.773438 498.613281 C 427.640625 498.613281 427.492188 498.585938 427.359375 498.585938 L 379.164062 498.585938 C 370.460938 498.585938 364.101562 490.367188 366.3125 481.945312 L 384.824219 411.011719 C 382.695312 403.695312 378.746094 384.402344 388.90625 365.296875 C 401.785156 341.058594 397.796875 329.394531 398.109375 308.226562 C 398.417969 287.0625 419.582031 252.691406 457.941406 258.523438 C 462.886719 259.28125 467.238281 260.304688 471.105469 261.53125 L 605.550781 261.53125 C 614.253906 261.53125 620.613281 269.746094 618.402344 278.167969 L 590.109375 386.585938 C 591.820312 386.113281 595.042969 385.492188 597.640625 386.53125 L 612.136719 330.96875 C 611.800781 324.503906 610.914062 317.753906 611.183594 310.074219 C 611.761719 293.878906 622.742188 291.574219 622.742188 275.960938 C 622.742188 260.34375 629.679688 243.003906 652.234375 234.328125 C 674.789062 225.652344 701.382812 223.347656 722.777344 233.75 C 735.292969 239.839844 740.078125 252.246094 741.910156 261.503906 L 811.96875 261.503906 C 820.671875 261.503906 827.03125 269.722656 824.824219 278.140625 Z M 767.0625 447.402344 C 766.984375 447.414062 766.890625 447.414062 766.792969 447.429688 C 766.890625 447.414062 766.984375 447.414062 767.0625 447.402344 Z M 588.65625 456.375 C 588.628906 456.375 588.601562 456.375 588.574219 456.375 C 588.519531 456.375 588.464844 456.375 588.414062 456.375 C 588.492188 456.375 588.574219 456.375 588.65625 456.375 Z M 605.578125 456.496094 C 605.78125 456.496094 605.980469 456.496094 606.171875 456.511719 C 606.386719 456.511719 606.613281 456.511719 606.832031 456.523438 C 606.601562 456.523438 606.359375 456.511719 606.128906 456.511719 C 605.953125 456.496094 605.765625 456.496094 605.578125 456.496094 Z M 600.792969 456.429688 C 600.308594 456.429688 599.839844 456.414062 599.367188 456.414062 C 599.90625 456.414062 600.445312 456.429688 600.996094 456.429688 C 600.929688 456.441406 600.863281 456.429688 600.792969 456.429688 Z M 594.261719 456.386719 C 594.140625 456.386719 594.019531 456.386719 593.882812 456.386719 C 594.234375 456.386719 594.582031 456.386719 594.933594 456.386719 C 595.015625 456.386719 595.09375 456.386719 595.175781 456.386719 C 594.867188 456.386719 594.554688 456.386719 594.261719 456.386719 Z M 590.621094 456.375 C 590.984375 456.375 591.363281 456.375 591.742188 456.375 C 591.59375 456.375 591.445312 456.375 591.296875 456.375 C 591.066406 456.375 590.851562 456.375 590.621094 456.375 Z M 589.910156 456.375 C 589.679688 456.375 589.464844 456.375 589.234375 456.375 C 589.558594 456.375 589.882812 456.375 590.21875 456.375 C 590.109375 456.375 590.003906 456.375 589.910156 456.375 Z M 581.015625 456.402344 C 581.136719 456.402344 581.273438 456.402344 581.40625 456.402344 C 581.367188 456.402344 581.3125 456.402344 581.273438 456.402344 C 581.152344 456.402344 581.042969 456.402344 580.933594 456.402344 C 580.960938 456.402344 580.988281 456.402344 581.015625 456.402344 Z M 581.015625 456.402344 " fill-opacity="1" fill-rule="nonzero"/></g><g clip-path="url(#67cafcd798)"><path fill="#0a3029" d="M 986.902344 448.074219 L 977.445312 484.304688 C 975.246094 492.726562 967.636719 498.597656 958.933594 498.597656 L 901.710938 498.597656 C 896.335938 498.597656 891.136719 500.5 887.011719 503.949219 L 872.246094 516.34375 C 869.875 518.324219 866.332031 517.945312 864.460938 515.480469 L 858.382812 507.546875 C 854.058594 501.898438 847.347656 498.585938 840.234375 498.585938 L 792.015625 498.585938 C 789.832031 498.585938 787.785156 498.058594 785.992188 497.144531 C 792.59375 487.875 805.703125 470.171875 816.441406 459.835938 C 831.476562 445.382812 865.011719 439.023438 882.929688 430.925781 C 900.851562 422.828125 903.167969 416.46875 903.167969 416.46875 L 957.515625 417.046875 L 969.65625 439.601562 Z M 537.742188 415.914062 C 517.503906 412.441406 507.089844 410.714844 507.089844 410.714844 L 428.449219 404.933594 C 428.449219 404.933594 417.46875 404.355469 403.589844 406.671875 C 395.359375 408.046875 388.164062 412.265625 383.664062 415.472656 L 366.296875 481.945312 C 364.101562 490.367188 370.460938 498.585938 379.152344 498.585938 L 427.371094 498.585938 C 434.484375 498.585938 441.195312 501.898438 445.519531 507.546875 L 451.59375 515.480469 C 453.480469 517.933594 457.023438 518.324219 459.382812 516.34375 L 474.148438 503.949219 C 478.273438 500.484375 483.472656 498.597656 488.847656 498.597656 L 546.066406 498.597656 C 554.769531 498.597656 562.371094 492.726562 564.578125 484.304688 L 572.675781 453.304688 C 570.414062 434.402344 556.578125 419.136719 537.742188 415.914062 Z M 709.628906 388.363281 C 708.753906 389.238281 708.09375 390.183594 707.6875 391.191406 L 711.378906 389.210938 Z M 824.824219 278.167969 L 771.023438 484.292969 C 768.828125 492.710938 761.214844 498.585938 752.511719 498.585938 L 695.292969 498.585938 C 689.917969 498.585938 684.71875 500.484375 680.59375 503.933594 L 665.828125 516.328125 C 663.457031 518.308594 659.914062 517.933594 658.039062 515.46875 L 651.964844 507.53125 C 647.640625 501.886719 640.929688 498.574219 633.816406 498.574219 L 585.597656 498.574219 C 576.894531 498.574219 570.535156 490.355469 572.742188 481.933594 L 576.949219 465.820312 L 573.621094 454.570312 L 579.359375 456.589844 L 662.90625 480.964844 L 767.078125 447.402344 C 761.769531 447.832031 747.5 449.058594 726.726562 451.203125 C 700.035156 453.964844 669.34375 457.953125 663.523438 474.214844 C 663.523438 474.214844 652.167969 457.953125 627.617188 457.035156 C 606.222656 456.226562 584.613281 456.363281 579.398438 456.414062 L 626.527344 275.824219 C 628.722656 267.402344 636.335938 261.53125 645.039062 261.53125 L 811.96875 261.53125 C 820.660156 261.53125 827.019531 269.75 824.824219 278.167969 Z M 753.363281 396.257812 C 730.699219 384.308594 730.390625 382.785156 730.390625 382.785156 L 727.050781 380.980469 C 720.246094 382.476562 713.199219 384.820312 709.628906 388.363281 L 696.289062 381.789062 C 690.132812 383.242188 684.378906 385.320312 681 388.296875 C 677.011719 391.8125 670.140625 394.65625 661.636719 397.875 C 678.464844 419.703125 698.175781 396.273438 698.175781 396.273438 L 707.675781 391.191406 C 707.109375 392.621094 707.070312 394.210938 707.6875 395.960938 C 712.902344 410.6875 726.09375 414.984375 734.378906 411 C 739.378906 408.613281 747.609375 401.511719 753.363281 396.257812 Z M 753.363281 396.257812 " fill-opacity="1" fill-rule="nonzero"/></g><path fill="#fffbed" d="M 582.890625 414.191406 C 577.027344 419.6875 569.820312 425.523438 563.097656 430.683594 C 556.859375 423.070312 548.0625 417.679688 537.742188 415.902344 C 517.503906 412.425781 507.089844 410.703125 507.089844 410.703125 L 449.546875 406.472656 C 453.859375 385.777344 459.152344 361 459.152344 361 C 459.152344 361 480.628906 316.203125 523.890625 302.082031 C 523.890625 302.082031 525.738281 343.5 518.058594 359.464844 C 518.058594 359.464844 541.378906 348.417969 576.972656 346.878906 C 576.972656 346.878906 558.261719 388.296875 539.84375 398.429688 C 539.84375 398.429688 567.125 396.488281 586.3125 401.054688 Z M 909.121094 446.121094 C 907.574219 446.121094 906.308594 447.375 906.308594 448.9375 C 906.308594 450.488281 907.558594 451.753906 909.121094 451.753906 C 910.671875 451.753906 911.9375 450.5 911.9375 448.9375 C 911.9375 447.375 910.683594 446.121094 909.121094 446.121094 Z M 896.769531 483.765625 C 895.21875 483.765625 893.953125 485.019531 893.953125 486.582031 C 893.953125 488.128906 895.203125 489.398438 896.769531 489.398438 C 898.316406 489.398438 899.582031 488.144531 899.582031 486.582031 C 899.570312 485.03125 898.316406 483.765625 896.769531 483.765625 Z M 753.363281 396.257812 C 747.609375 401.511719 739.378906 408.601562 734.378906 411.011719 C 726.09375 415 712.902344 410.703125 707.6875 395.976562 C 707.070312 394.222656 707.109375 392.632812 707.675781 391.207031 L 698.175781 396.285156 C 698.175781 396.285156 678.453125 419.714844 661.636719 397.890625 C 648.597656 402.847656 631.6875 408.707031 615.332031 419.296875 C 597.398438 430.910156 587.457031 439.144531 582.792969 443.359375 L 579.386719 456.414062 C 584.585938 456.375 606.210938 456.242188 627.605469 457.035156 C 652.152344 457.953125 663.511719 474.214844 663.511719 474.214844 C 669.34375 457.953125 700.023438 453.964844 726.710938 451.203125 C 747.488281 449.046875 761.753906 447.832031 767.0625 447.402344 L 773.355469 445.382812 L 778.421875 455.945312 L 771.023438 484.304688 L 789.105469 415.011719 C 784 412.34375 770.890625 405.5 753.402344 396.285156 C 753.390625 396.273438 753.375 396.273438 753.363281 396.257812 Z M 709.628906 388.363281 C 708.753906 389.238281 708.09375 390.183594 707.6875 391.191406 L 711.378906 389.210938 Z M 576.933594 465.832031 L 572.730469 481.945312 C 570.535156 490.367188 576.894531 498.585938 585.582031 498.585938 C 585.152344 498.585938 584.734375 498.546875 584.316406 498.503906 Z M 730.390625 382.785156 L 722.414062 378.488281 C 722.414062 378.488281 708.550781 378.90625 696.289062 381.800781 L 709.617188 388.363281 C 713.1875 384.820312 720.230469 382.476562 727.035156 380.980469 Z M 696.0625 381.855469 C 695.402344 382.019531 694.742188 382.179688 694.082031 382.355469 C 694.742188 382.179688 695.402344 382.019531 696.0625 381.855469 Z M 696.0625 381.855469 C 696.140625 381.84375 696.210938 381.816406 696.289062 381.800781 C 696.210938 381.816406 696.140625 381.84375 696.0625 381.855469 Z M 684.109375 386.152344 C 685.136719 385.574219 686.265625 385.035156 687.464844 384.539062 C 686.265625 385.035156 685.136719 385.574219 684.109375 386.152344 Z M 689.742188 383.675781 C 691.089844 383.203125 692.503906 382.773438 693.945312 382.382812 C 692.503906 382.773438 691.089844 383.203125 689.742188 383.675781 Z M 689.742188 383.675781 " fill-opacity="1" fill-rule="nonzero"/><path fill="#e8b895" d="M 758.292969 314.476562 C 764.074219 331.253906 764.449219 375.484375 729.703125 372.546875 L 734.324219 385.84375 L 700.628906 402.429688 L 679.394531 390.480469 C 679.394531 390.480469 679.976562 374.863281 681.132812 365.621094 C 682.292969 356.367188 633.144531 328.609375 636.605469 281.78125 C 640.082031 234.949219 714.667969 223.953125 734.902344 255.183594 C 734.902344 255.183594 745.265625 277.925781 746.542969 288.191406 C 748.214844 301.734375 752.511719 297.703125 758.292969 314.476562 Z M 599.878906 388.132812 C 596.402344 384.09375 588.898438 386.976562 588.898438 386.976562 C 588.898438 386.976562 575.601562 370.78125 572.703125 366.160156 C 569.808594 361.539062 565.765625 364.421875 567.503906 368.476562 C 569.242188 372.519531 576.757812 386.976562 576.757812 386.976562 C 576.757812 386.976562 571.558594 385.238281 564.621094 391.019531 C 557.679688 396.796875 551.320312 402 553.058594 408.371094 C 554.796875 414.742188 584.289062 441.90625 584.289062 441.90625 L 584.871094 456.363281 C 584.871094 456.363281 603.394531 455.808594 621.191406 456.726562 C 623.023438 456.820312 620.722656 433.808594 617.257812 418.773438 C 613.753906 403.75 603.355469 392.175781 599.878906 388.132812 Z M 847.738281 383.824219 C 847.078125 378.164062 842.214844 382.097656 842.214844 382.097656 C 840.667969 377.371094 837.070312 381.101562 837.070312 381.101562 C 837.070312 381.101562 834.238281 376.589844 831.625 383.042969 C 829.011719 389.496094 824.324219 402.5625 819.808594 405.40625 C 815.296875 408.25 802.632812 415.792969 797.269531 431.085938 C 793.59375 441.570312 784.511719 471.15625 779.175781 488.710938 C 780.65625 494.289062 785.710938 498.597656 792.015625 498.597656 L 821.601562 498.597656 C 823.867188 480.828125 826.925781 458.367188 828.433594 453.519531 C 831.019531 445.234375 838.320312 435.398438 844.183594 426.332031 C 850.042969 417.25 847.039062 413.289062 847.039062 413.289062 C 847.039062 413.289062 852.132812 393.066406 852.925781 386.652344 C 853.707031 380.226562 847.738281 383.824219 847.738281 383.824219 Z M 933.820312 277.132812 C 888.144531 278.289062 882.351562 318.761719 878.890625 335.535156 C 875.425781 352.308594 869.054688 364.449219 871.371094 387.003906 C 873.6875 409.558594 895.082031 413.019531 910.105469 406.660156 L 904.90625 420.539062 L 914.160156 431.515625 L 950.011719 422.839844 C 950.011719 422.839844 951.171875 399.707031 951.75 392.191406 C 952.332031 384.671875 972.566406 376.574219 981.242188 347.082031 C 989.90625 317.617188 979.492188 275.984375 933.820312 277.132812 Z M 500.730469 298.527344 C 496.6875 280.027344 471.816406 256.316406 445.222656 269.613281 C 418.628906 282.910156 398.390625 304.886719 413.425781 337.273438 C 428.460938 369.664062 448.699219 371.386719 446.382812 385.84375 C 444.0625 400.300781 428.460938 404.921875 428.460938 404.921875 C 428.460938 404.921875 474.714844 435.574219 507.105469 410.703125 C 507.105469 410.703125 497.269531 408.382812 490.910156 403.183594 C 484.550781 397.984375 485.128906 386.410156 485.128906 386.410156 C 485.128906 386.410156 497.269531 387.570312 506.523438 380.050781 C 515.78125 372.53125 516.359375 361.550781 515.199219 342.460938 C 514.042969 323.371094 504.785156 317.039062 500.730469 298.527344 Z M 500.730469 298.527344 " fill-opacity="1" fill-rule="nonzero"/><path fill="#1e1f24" d="M 695.589844 382.949219 C 695.589844 382.949219 686.335938 376.589844 676.511719 378.90625 C 666.675781 381.222656 657.433594 388.742188 643.558594 381.800781 C 629.679688 374.863281 608.285156 383.539062 608.285156 383.539062 C 608.285156 383.539062 602.503906 366.1875 608.863281 352.308594 C 615.222656 338.433594 610.601562 326.292969 611.183594 310.097656 C 611.761719 293.90625 622.742188 291.601562 622.742188 275.984375 C 622.742188 260.371094 629.679688 243.03125 652.234375 234.355469 C 674.789062 225.679688 701.382812 223.375 722.777344 233.773438 C 744.171875 244.191406 743.015625 273.089844 743.015625 273.089844 C 743.015625 273.089844 728.558594 256.894531 705.425781 251.695312 C 705.425781 251.695312 712.363281 282.34375 679.988281 315.300781 L 670.152344 296.800781 C 670.152344 296.800781 656.855469 300.84375 657.433594 315.300781 C 658.015625 329.757812 671.3125 339.589844 681.726562 339.011719 C 692.128906 338.433594 706.003906 366.765625 695.589844 382.949219 Z M 716.984375 309.804688 C 716.984375 308.363281 715.828125 307.203125 714.382812 307.203125 C 712.941406 307.203125 711.785156 308.363281 711.785156 309.804688 C 711.785156 311.246094 712.941406 312.402344 714.382812 312.402344 C 715.828125 312.402344 716.984375 311.246094 716.984375 309.804688 Z M 502.820312 323.304688 C 502.820312 321.863281 501.660156 320.703125 500.21875 320.703125 C 498.777344 320.703125 497.617188 321.863281 497.617188 323.304688 C 497.617188 324.746094 498.777344 325.902344 500.21875 325.902344 C 501.660156 325.902344 502.820312 324.746094 502.820312 323.304688 Z M 475.832031 331.898438 C 475.832031 333.339844 476.992188 334.5 478.433594 334.5 C 479.875 334.5 481.035156 333.339844 481.035156 331.898438 C 481.035156 330.457031 479.875 329.296875 478.433594 329.296875 C 476.992188 329.296875 475.832031 330.457031 475.832031 331.898438 Z M 740.386719 303.402344 C 740.386719 304.84375 741.546875 306.003906 742.988281 306.003906 C 744.429688 306.003906 745.589844 304.84375 745.589844 303.402344 C 745.589844 301.960938 744.429688 300.804688 742.988281 300.804688 C 741.546875 300.804688 740.386719 301.960938 740.386719 303.402344 Z M 721.257812 293.8125 C 721.792969 294.027344 722.402344 293.785156 722.617188 293.246094 C 722.832031 292.707031 722.578125 292.101562 722.050781 291.882812 C 705.882812 285.203125 699.511719 299.050781 699.441406 299.199219 C 699.214844 299.726562 699.441406 300.34375 699.96875 300.574219 C 700.101562 300.640625 700.25 300.667969 700.398438 300.667969 C 700.804688 300.667969 701.179688 300.4375 701.355469 300.046875 C 701.585938 299.550781 707 287.921875 721.257812 293.8125 Z M 737.613281 283.371094 C 732.828125 285 730.632812 289.445312 730.539062 289.632812 C 730.28125 290.144531 730.5 290.78125 731.023438 291.023438 C 731.171875 291.089844 731.320312 291.128906 731.480469 291.128906 C 731.871094 291.128906 732.238281 290.914062 732.425781 290.550781 C 732.4375 290.511719 734.363281 286.683594 738.3125 285.351562 C 740.898438 284.488281 743.808594 284.835938 746.976562 286.425781 C 747.488281 286.683594 748.121094 286.480469 748.378906 285.957031 C 748.632812 285.445312 748.429688 284.8125 747.90625 284.554688 C 744.199219 282.710938 740.738281 282.304688 737.613281 283.371094 Z M 716.59375 323.074219 C 716.808594 323.074219 717.039062 323.007812 717.214844 322.859375 C 722.507812 318.882812 722.253906 312.132812 722.238281 311.851562 C 722.210938 311.273438 721.726562 310.839844 721.148438 310.855469 C 720.570312 310.882812 720.125 311.367188 720.152344 311.945312 C 720.152344 312 720.351562 317.898438 715.960938 321.1875 C 715.503906 321.539062 715.410156 322.183594 715.757812 322.65625 C 715.960938 322.9375 716.269531 323.074219 716.59375 323.074219 Z M 747.769531 313.441406 C 742.21875 312.886719 738.460938 307.214844 738.421875 307.164062 C 738.109375 306.675781 737.464844 306.542969 736.980469 306.851562 C 736.492188 307.164062 736.359375 307.808594 736.667969 308.292969 C 736.84375 308.5625 741.007812 314.855469 747.570312 315.515625 C 747.609375 315.515625 747.636719 315.515625 747.675781 315.515625 C 748.203125 315.515625 748.660156 315.113281 748.714844 314.574219 C 748.769531 314.007812 748.335938 313.496094 747.769531 313.441406 Z M 732.089844 324.460938 C 731.578125 324.71875 731.347656 325.335938 731.601562 325.863281 C 731.777344 326.238281 732.15625 326.457031 732.546875 326.457031 C 732.695312 326.457031 732.855469 326.429688 733.003906 326.347656 C 733.582031 326.066406 738.648438 323.546875 739.550781 320.164062 C 739.863281 319.003906 739.648438 317.859375 738.945312 316.835938 C 736.238281 312.914062 731.359375 304.992188 731.308594 304.914062 C 731.011719 304.414062 730.363281 304.265625 729.863281 304.574219 C 729.378906 304.871094 729.21875 305.519531 729.527344 306.015625 C 729.582031 306.097656 734.488281 314.0625 737.234375 318.035156 C 737.597656 318.558594 737.691406 319.058594 737.542969 319.636719 C 736.964844 321.714844 733.410156 323.828125 732.089844 324.460938 Z M 740.777344 330.902344 C 733.03125 335.484375 724.691406 332.746094 723.574219 332.34375 L 724.246094 331.144531 C 724.53125 330.644531 724.355469 330 723.84375 329.714844 C 723.34375 329.433594 722.699219 329.609375 722.414062 330.121094 L 720.179688 334.109375 C 720.03125 334.242188 719.9375 334.429688 719.882812 334.632812 L 718.117188 337.785156 C 717.832031 338.285156 718.007812 338.929688 718.519531 339.214844 C 718.683594 339.308594 718.859375 339.347656 719.03125 339.347656 C 719.398438 339.347656 719.761719 339.160156 719.949219 338.808594 L 720.433594 337.949219 C 723.425781 345.359375 737.101562 345.464844 737.746094 345.464844 C 738.324219 345.464844 738.796875 344.996094 738.796875 344.414062 C 738.796875 343.835938 738.324219 343.363281 737.746094 343.363281 C 737.585938 343.363281 722.402344 343.257812 721.957031 335.214844 L 722.550781 334.148438 C 722.589844 334.175781 722.617188 334.203125 722.65625 334.214844 C 722.886719 334.308594 726.242188 335.617188 730.820312 335.617188 C 734.09375 335.617188 738.003906 334.945312 741.828125 332.679688 C 742.328125 332.382812 742.488281 331.75 742.191406 331.253906 C 741.910156 330.765625 741.277344 330.605469 740.777344 330.902344 Z M 709.535156 373.894531 C 709.277344 377.503906 727.238281 380.898438 732.964844 381.882812 L 729.71875 372.546875 C 717.199219 373.273438 709.832031 369.597656 709.535156 373.894531 Z M 912.492188 349.035156 C 911.222656 349.035156 910.1875 350.058594 910.1875 351.339844 C 910.1875 352.605469 911.210938 353.644531 912.492188 353.644531 C 913.757812 353.644531 914.792969 352.621094 914.792969 351.339844 C 914.792969 350.058594 913.769531 349.035156 912.492188 349.035156 Z M 886.71875 348.121094 C 886.71875 346.855469 885.691406 345.816406 884.414062 345.816406 C 883.132812 345.816406 882.109375 346.839844 882.109375 348.121094 C 882.109375 349.386719 883.132812 350.425781 884.414062 350.425781 C 885.691406 350.425781 886.71875 349.386719 886.71875 348.121094 Z M 900.5 381.140625 C 899.933594 381.25 899.558594 381.789062 899.664062 382.355469 C 899.757812 382.851562 900.191406 383.21875 900.6875 383.21875 C 900.753906 383.21875 900.808594 383.21875 900.878906 383.203125 C 907.492188 381.976562 911.425781 378.070312 912.289062 374.945312 C 912.679688 373.503906 912.421875 372.25 911.5625 371.507812 C 911.007812 371.023438 909.730469 370.378906 907.332031 371.402344 C 901.1875 374.027344 893.75 373.773438 893.667969 373.773438 C 893.078125 373.71875 892.605469 374.203125 892.589844 374.769531 C 892.5625 375.347656 893.023438 375.832031 893.589844 375.859375 C 893.910156 375.875 901.578125 376.144531 908.152344 373.328125 C 909.285156 372.84375 909.957031 372.898438 910.171875 373.097656 C 910.390625 373.289062 910.429688 373.800781 910.253906 374.40625 C 909.6875 376.492188 906.617188 380.011719 900.5 381.140625 Z M 910.105469 406.660156 L 906.078125 417.398438 C 912.4375 414.300781 921.542969 409.421875 921.542969 407.023438 C 921.542969 403.34375 917.554688 403.953125 910.105469 406.660156 Z M 996.722656 342.285156 C 993.046875 353.644531 983.222656 354.25 983.222656 354.25 C 983.222656 354.25 988.128906 363.453125 981.378906 369.890625 C 974.628906 376.332031 967.878906 376.640625 967.878906 376.640625 C 967.878906 376.640625 964.496094 387.691406 953.152344 389.226562 L 953.773438 376.953125 C 953.773438 376.953125 967.273438 369.285156 969.722656 358.238281 C 972.175781 347.191406 960.832031 340.441406 960.832031 340.441406 C 960.832031 340.441406 956.84375 359.773438 948.246094 364.070312 L 945.984375 351.003906 L 921.949219 354.089844 C 921.476562 360.582031 916.046875 365.730469 909.433594 365.730469 C 902.507812 365.730469 896.863281 360.097656 896.863281 353.160156 C 896.863281 352.820312 896.890625 352.484375 896.917969 352.160156 L 892.511719 351.675781 C 892.539062 351.90625 892.496094 352.148438 892.363281 352.363281 C 892.320312 352.417969 888.429688 358.441406 887.257812 361.660156 C 887.082031 362.160156 887.09375 362.605469 887.308594 363.046875 C 887.917969 364.328125 889.898438 365.269531 890.625 365.527344 C 891.164062 365.714844 891.445312 366.320312 891.257812 366.859375 C 891.109375 367.292969 890.707031 367.5625 890.273438 367.5625 C 890.152344 367.5625 890.042969 367.546875 889.921875 367.507812 C 889.574219 367.386719 886.515625 366.242188 885.421875 363.949219 C 884.980469 362.996094 884.925781 361.957031 885.300781 360.945312 C 885.300781 360.933594 885.300781 360.933594 885.316406 360.917969 C 883.363281 362.171875 881.046875 362.914062 878.550781 362.914062 C 871.628906 362.914062 865.996094 357.28125 865.996094 350.34375 C 865.996094 343.40625 871.628906 337.773438 878.550781 337.773438 C 885.167969 337.773438 890.582031 342.90625 891.070312 349.398438 L 897.28125 350.085938 C 898.652344 344.644531 903.585938 340.589844 909.445312 340.589844 C 915.980469 340.589844 921.355469 345.601562 921.949219 351.972656 L 945.648438 348.929688 L 942.738281 332.140625 C 942.738281 332.140625 929.546875 330.605469 925.558594 317.105469 C 925.558594 317.105469 922.488281 321.09375 912.371094 321.714844 C 902.238281 322.332031 895.488281 311.582031 895.488281 311.582031 C 895.488281 311.582031 886.890625 318.023438 878.308594 313.425781 C 869.714844 308.820312 870.644531 296.25 881.691406 291.640625 C 881.691406 291.640625 877.394531 271.082031 896.109375 271.390625 C 896.109375 271.390625 896.726562 260.964844 908.988281 258.511719 C 921.261719 256.058594 928.320312 264.953125 928.320312 264.953125 C 928.320312 264.953125 934.761719 254.523438 948.570312 256.976562 C 962.382812 259.429688 964.214844 272.617188 964.214844 272.617188 C 964.214844 272.617188 979.25 271.390625 984.152344 279.988281 C 989.058594 288.582031 986.914062 296.25 986.914062 296.25 C 986.914062 296.25 997.652344 299.320312 998.273438 309.128906 C 998.894531 318.9375 991.832031 324.476562 991.832031 324.476562 C 991.832031 324.476562 1000.402344 330.929688 996.722656 342.285156 Z M 878.527344 360.839844 C 884.304688 360.839844 888.992188 356.136719 888.992188 350.371094 C 888.992188 344.589844 884.292969 339.902344 878.527344 339.902344 C 872.757812 339.902344 868.058594 344.605469 868.058594 350.371094 C 868.042969 356.136719 872.746094 360.839844 878.527344 360.839844 Z M 919.902344 353.171875 C 919.902344 347.394531 915.199219 342.703125 909.433594 342.703125 C 903.652344 342.703125 898.964844 347.40625 898.964844 353.171875 C 898.964844 358.953125 903.664062 363.640625 909.433594 363.640625 C 915.199219 363.640625 919.902344 358.9375 919.902344 353.171875 Z M 905.566406 339.160156 C 905.96875 338.878906 915.65625 332.492188 924.429688 342.960938 C 924.628906 343.203125 924.925781 343.335938 925.222656 343.335938 C 925.464844 343.335938 925.695312 343.257812 925.894531 343.09375 C 926.339844 342.730469 926.394531 342.070312 926.03125 341.625 C 916.019531 329.675781 904.5 337.367188 904.394531 337.449219 C 903.921875 337.773438 903.800781 338.417969 904.125 338.90625 C 904.433594 339.363281 905.09375 339.484375 905.566406 339.160156 Z M 879.601562 336.289062 C 879.628906 336.265625 882.324219 333.730469 885.828125 334.015625 C 888.199219 334.203125 890.449219 335.644531 892.484375 338.3125 C 892.683594 338.582031 892.996094 338.714844 893.320312 338.714844 C 893.535156 338.714844 893.761719 338.648438 893.953125 338.5 C 894.410156 338.148438 894.503906 337.488281 894.140625 337.03125 C 891.714844 333.867188 888.96875 332.140625 885.960938 331.914062 C 881.515625 331.574219 878.296875 334.632812 878.160156 334.769531 C 877.742188 335.171875 877.730469 335.820312 878.136719 336.238281 C 878.527344 336.667969 879.1875 336.695312 879.601562 336.289062 Z M 963.015625 361.890625 C 963.1875 361.996094 963.378906 362.050781 963.582031 362.050781 C 963.929688 362.050781 964.265625 361.875 964.46875 361.566406 C 969.089844 354.304688 964.925781 348.363281 964.738281 348.121094 C 964.402344 347.648438 963.753906 347.554688 963.285156 347.878906 C 962.8125 348.214844 962.703125 348.859375 963.042969 349.332031 C 963.1875 349.535156 966.542969 354.398438 962.703125 360.433594 C 962.394531 360.933594 962.527344 361.578125 963.015625 361.890625 Z M 966.71875 439.277344 L 940.339844 455.582031 L 928.605469 434.441406 C 928.320312 433.941406 927.6875 433.753906 927.191406 434.035156 C 926.691406 434.320312 926.503906 434.953125 926.785156 435.453125 L 939.058594 457.546875 C 939.195312 457.789062 939.4375 457.976562 939.707031 458.046875 C 939.785156 458.074219 939.882812 458.085938 939.976562 458.085938 C 940.164062 458.085938 940.351562 458.03125 940.527344 457.925781 L 967.835938 441.042969 C 968.324219 440.734375 968.484375 440.101562 968.175781 439.601562 C 967.851562 439.128906 967.203125 438.96875 966.71875 439.277344 Z M 902.695312 425.011719 L 886.90625 441.082031 L 885.4375 433.523438 C 885.328125 432.960938 884.761719 432.582031 884.210938 432.703125 C 883.644531 432.8125 883.269531 433.363281 883.390625 433.929688 L 885.234375 443.441406 C 885.300781 443.816406 885.585938 444.128906 885.960938 444.234375 C 886.058594 444.261719 886.164062 444.277344 886.257812 444.277344 C 886.542969 444.277344 886.8125 444.167969 887 443.964844 L 904.179688 426.480469 C 904.582031 426.0625 904.582031 425.402344 904.164062 424.996094 C 903.761719 424.59375 903.101562 424.59375 902.695312 425.011719 Z M 595.511719 395.542969 L 597.964844 414.878906 C 598.03125 415.457031 597.628906 415.96875 597.0625 416.050781 C 597.023438 416.050781 596.96875 416.0625 596.929688 416.0625 C 596.414062 416.0625 595.957031 415.671875 595.890625 415.148438 L 593.546875 396.703125 C 592.84375 396.675781 591.890625 396.636719 590.8125 396.570312 C 591.742188 397.78125 592.886719 399.667969 592.832031 401.539062 C 592.804688 402.671875 592.332031 403.667969 591.484375 404.4375 C 588.304688 407.292969 579.074219 408.519531 577.78125 408.679688 C 577.417969 408.789062 577.054688 408.871094 576.679688 408.949219 C 580.789062 411.347656 587.523438 415.792969 591.914062 421.441406 C 592.265625 421.898438 592.183594 422.558594 591.726562 422.910156 C 591.539062 423.054688 591.308594 423.125 591.082031 423.125 C 590.769531 423.125 590.460938 422.988281 590.257812 422.71875 C 584.546875 415.378906 574.199219 409.921875 572.488281 409.042969 C 568 408.492188 564.09375 406.242188 563.863281 406.109375 C 561.953125 404.839844 561.898438 403.414062 562.464844 402.484375 C 563.621094 400.582031 567.894531 400.03125 571.652344 402.148438 C 572.152344 402.429688 572.339844 403.0625 572.058594 403.574219 C 571.773438 404.074219 571.140625 404.261719 570.628906 403.980469 C 568.40625 402.726562 566.0625 402.699219 564.835938 403.199219 C 564.378906 403.386719 564.242188 403.574219 564.230469 403.613281 C 564.230469 403.613281 564.28125 403.898438 564.96875 404.355469 C 564.984375 404.355469 568.59375 406.429688 572.59375 406.957031 C 572.730469 406.941406 572.863281 406.96875 573 407.011719 C 574.429688 407.160156 575.898438 407.105469 577.257812 406.671875 C 577.703125 406.539062 577.78125 406.335938 577.835938 406.148438 C 578.484375 403.628906 572.246094 395.71875 567.625 390.898438 C 567.21875 390.480469 567.234375 389.820312 567.652344 389.414062 C 568.070312 389.011719 568.730469 389.023438 569.132812 389.441406 C 571.074219 391.460938 580.449219 401.511719 579.910156 406.242188 C 581.515625 405.960938 583.453125 405.570312 585.246094 405.042969 C 585.179688 404.894531 585.125 404.746094 585.125 404.570312 C 585.125 399.898438 580.03125 395.597656 579.980469 395.558594 C 579.871094 395.464844 579.777344 395.355469 579.722656 395.222656 C 577.121094 394.667969 574.96875 393.941406 574.0625 392.929688 C 573.511719 392.3125 573.445312 391.691406 573.472656 391.289062 C 573.835938 387.003906 583.96875 386.421875 587.066406 386.34375 C 587.605469 386.34375 588.117188 386.789062 588.128906 387.367188 C 588.144531 387.945312 587.683594 388.417969 587.105469 388.445312 C 581.742188 388.578125 575.679688 389.859375 575.546875 391.476562 C 576.003906 392.863281 584.855469 394.347656 594.476562 394.640625 C 595.015625 394.640625 595.445312 395.03125 595.511719 395.542969 Z M 587.96875 396.339844 C 586.445312 396.203125 584.816406 396.042969 583.226562 395.828125 C 584.921875 397.726562 587.144531 400.894531 587.226562 404.398438 C 588.441406 403.953125 589.464844 403.441406 590.097656 402.875 C 590.527344 402.484375 590.742188 402.039062 590.757812 401.472656 C 590.8125 399.722656 588.9375 397.445312 588.210938 396.71875 C 588.101562 396.609375 588.023438 396.472656 587.96875 396.339844 Z M 425.714844 350.261719 C 421.726562 337.988281 434 331.238281 434 331.238281 L 444.738281 341.371094 C 466.832031 313.144531 467.128906 281.226562 467.128906 281.226562 C 488.605469 283.988281 499.652344 294.417969 499.652344 294.417969 C 499.964844 286.441406 496.273438 264.34375 457.925781 258.511719 C 419.582031 252.679688 398.402344 287.0625 398.109375 308.226562 C 397.796875 329.394531 401.785156 341.058594 388.90625 365.296875 C 376.027344 389.535156 385.832031 414.082031 385.832031 414.082031 C 385.832031 414.082031 401.179688 405.796875 428.460938 404.921875 C 455.746094 404.046875 448.738281 366.523438 448.738281 366.523438 C 448.738281 366.523438 429.703125 362.535156 425.714844 350.261719 Z M 500.554688 334.6875 C 498.683594 331.574219 492.433594 324.40625 492.164062 324.113281 C 491.785156 323.679688 491.125 323.625 490.695312 324.015625 C 490.261719 324.394531 490.207031 325.054688 490.597656 325.484375 C 490.667969 325.554688 497 332.816406 498.777344 335.765625 C 500.070312 337.921875 496.6875 340.15625 496.648438 340.183594 C 496.164062 340.496094 496.027344 341.140625 496.339844 341.625 C 496.539062 341.9375 496.878906 342.109375 497.214844 342.109375 C 497.402344 342.109375 497.605469 342.058594 497.78125 341.949219 C 499.546875 340.789062 502.429688 337.800781 500.554688 334.6875 Z M 499.074219 352.324219 C 490.867188 354.585938 485.25 349.695312 485.023438 349.480469 C 484.589844 349.105469 483.929688 349.128906 483.554688 349.5625 C 483.164062 349.992188 483.203125 350.652344 483.632812 351.03125 C 483.847656 351.230469 488.132812 355.003906 494.777344 355.003906 C 496.285156 355.003906 497.914062 354.816406 499.652344 354.332031 C 500.207031 354.183594 500.542969 353.605469 500.378906 353.050781 C 500.207031 352.5 499.640625 352.175781 499.074219 352.324219 Z M 493.117188 304.832031 C 488.957031 306.257812 487.125 310.394531 487.042969 310.570312 C 486.8125 311.097656 487.054688 311.714844 487.582031 311.945312 C 487.714844 312 487.863281 312.027344 488 312.027344 C 488.402344 312.027344 488.78125 311.796875 488.957031 311.40625 C 488.96875 311.367188 490.519531 307.917969 493.820312 306.796875 C 495.921875 306.085938 498.347656 306.460938 501 307.917969 C 501.511719 308.1875 502.144531 308.011719 502.414062 307.5 C 502.699219 306.988281 502.507812 306.355469 501.996094 306.085938 C 498.804688 304.332031 495.8125 303.902344 493.117188 304.832031 Z M 467.183594 317.117188 C 469.445312 315.625 472.640625 315.449219 476.667969 316.59375 C 477.222656 316.753906 477.800781 316.433594 477.960938 315.878906 C 478.125 315.328125 477.800781 314.746094 477.246094 314.585938 C 472.585938 313.253906 468.8125 313.523438 466.011719 315.394531 C 462.359375 317.820312 461.820312 322.035156 461.808594 322.226562 C 461.742188 322.789062 462.144531 323.316406 462.722656 323.382812 C 462.765625 323.382812 462.804688 323.398438 462.84375 323.398438 C 463.371094 323.398438 463.816406 323.007812 463.882812 322.480469 C 463.882812 322.425781 464.339844 319.003906 467.183594 317.117188 Z M 848.441406 384.160156 C 847.875 384 847.308594 384.308594 847.132812 384.859375 L 840.316406 407.375 C 837.164062 406.996094 832.757812 406.484375 830.0625 406.214844 C 826.425781 405.851562 824.632812 407.308594 824.203125 408.652344 C 823.867188 409.71875 824.308594 410.808594 825.308594 411.390625 C 826.332031 411.980469 829.28125 413.34375 831.382812 414.3125 C 828.851562 415.417969 824.6875 417.652344 820.496094 421.695312 C 820.078125 422.101562 820.066406 422.761719 820.46875 423.179688 C 820.671875 423.394531 820.957031 423.5 821.226562 423.5 C 821.480469 423.5 821.75 423.40625 821.953125 423.203125 C 828.109375 417.261719 834.335938 415.417969 834.402344 415.402344 C 834.820312 415.28125 835.128906 414.90625 835.15625 414.472656 C 835.183594 414.042969 834.941406 413.625 834.535156 413.449219 C 834.46875 413.421875 827.894531 410.472656 826.34375 409.582031 C 826.144531 409.476562 826.167969 409.367188 826.195312 409.300781 C 826.359375 408.789062 827.488281 408.074219 829.863281 408.304688 C 834.402344 408.761719 843.777344 409.90625 843.875 409.90625 C 844.453125 409.972656 844.964844 409.570312 845.03125 408.992188 C 845.097656 408.410156 844.695312 407.898438 844.117188 407.832031 C 844.089844 407.832031 843.441406 407.75 842.417969 407.628906 L 849.128906 385.46875 C 849.300781 384.914062 848.992188 384.335938 848.441406 384.160156 Z M 833.753906 405.488281 C 833.863281 405.527344 833.984375 405.542969 834.089844 405.542969 C 834.523438 405.542969 834.925781 405.273438 835.074219 404.839844 L 842.445312 383.675781 C 842.632812 383.121094 842.351562 382.53125 841.796875 382.339844 C 841.257812 382.152344 840.652344 382.4375 840.464844 382.988281 L 833.09375 404.152344 C 832.917969 404.691406 833.214844 405.285156 833.753906 405.488281 Z M 827.976562 402.710938 C 828.097656 402.753906 828.230469 402.78125 828.351562 402.78125 C 828.769531 402.78125 829.175781 402.523438 829.324219 402.105469 L 836.449219 383.472656 C 836.652344 382.933594 836.382812 382.328125 835.84375 382.125 C 835.289062 381.921875 834.699219 382.191406 834.496094 382.730469 L 827.367188 401.363281 C 827.167969 401.902344 827.4375 402.496094 827.976562 402.710938 Z M 413.371094 498.597656 L 427.371094 498.597656 C 427.503906 498.597656 427.652344 498.625 427.789062 498.625 L 424.769531 479.277344 Z M 538.441406 456.605469 C 538.023438 456.199219 537.363281 456.214844 536.960938 456.632812 C 536.554688 457.046875 536.570312 457.707031 536.988281 458.113281 C 537.148438 458.273438 553.058594 473.847656 555.78125 493.464844 C 555.847656 493.992188 556.308594 494.367188 556.820312 494.367188 C 556.871094 494.367188 556.914062 494.367188 556.96875 494.355469 C 557.53125 494.273438 557.9375 493.75 557.855469 493.167969 C 555.027344 472.824219 539.117188 457.265625 538.441406 456.605469 Z M 664.171875 482.109375 C 664.105469 481.867188 663.957031 481.664062 663.753906 481.527344 C 663.847656 481.394531 663.914062 481.234375 663.929688 481.058594 L 664.546875 474.308594 C 664.601562 473.726562 664.171875 473.230469 663.605469 473.175781 C 663.039062 473.121094 662.527344 473.554688 662.472656 474.117188 L 661.855469 480.867188 C 661.8125 481.246094 662.003906 481.582031 662.296875 481.796875 C 662.136719 482.042969 662.082031 482.335938 662.148438 482.632812 L 669.316406 510.441406 C 669.4375 510.914062 669.871094 511.222656 670.328125 511.222656 C 670.410156 511.222656 670.503906 511.210938 670.585938 511.195312 C 671.148438 511.046875 671.472656 510.480469 671.339844 509.917969 Z M 821.601562 498.597656 L 836.734375 498.597656 L 825.402344 470.292969 Z M 698.742188 409.164062 C 698.191406 408.992188 697.597656 409.289062 697.421875 409.839844 L 686.1875 444.113281 C 686.011719 444.667969 686.308594 445.261719 686.859375 445.433594 C 686.96875 445.476562 687.074219 445.488281 687.183594 445.488281 C 687.628906 445.488281 688.03125 445.207031 688.179688 444.773438 L 699.417969 410.5 C 699.589844 409.933594 699.296875 409.339844 698.742188 409.164062 Z M 438.875 353.011719 C 439.886719 354.535156 441.542969 355.394531 443.792969 355.570312 C 443.820312 355.570312 443.847656 355.570312 443.875 355.570312 C 444.414062 355.570312 444.871094 355.152344 444.914062 354.601562 C 444.953125 354.019531 444.523438 353.523438 443.957031 353.480469 C 442.351562 353.359375 441.261719 352.820312 440.613281 351.851562 C 439.144531 349.65625 440.359375 345.898438 440.371094 345.855469 C 440.492188 345.492188 440.414062 345.101562 440.15625 344.820312 C 437.746094 342.179688 435.375 340.964844 433.125 341.179688 C 430.414062 341.449219 429 343.753906 428.933594 343.863281 C 428.636719 344.359375 428.800781 344.996094 429.285156 345.289062 C 429.769531 345.585938 430.414062 345.4375 430.710938 344.941406 C 430.726562 344.925781 431.667969 343.417969 433.339844 343.257812 C 434.765625 343.121094 436.4375 343.996094 438.203125 345.804688 C 437.867188 347.203125 437.261719 350.585938 438.875 353.011719 Z M 673.65625 325.796875 C 674.476562 327.304688 675.945312 328.246094 678.019531 328.597656 C 678.074219 328.609375 678.144531 328.609375 678.195312 328.609375 C 678.695312 328.609375 679.140625 328.246094 679.21875 327.734375 C 679.316406 327.167969 678.925781 326.628906 678.359375 326.535156 C 676.945312 326.292969 676 325.726562 675.488281 324.796875 C 674.277344 322.574219 675.757812 319.019531 675.769531 318.992188 C 675.90625 318.667969 675.878906 318.292969 675.675781 318.007812 C 673.0625 314.074219 670.300781 312.054688 667.5 311.972656 C 664.238281 311.890625 662.257812 314.476562 662.175781 314.585938 C 661.828125 315.042969 661.921875 315.703125 662.394531 316.054688 C 662.851562 316.40625 663.511719 316.308594 663.859375 315.839844 C 663.875 315.824219 665.34375 313.992188 667.457031 314.0625 C 669.425781 314.113281 671.566406 315.730469 673.65625 318.722656 C 673.199219 320.003906 672.296875 323.289062 673.65625 325.796875 Z M 553.667969 404.71875 C 553.921875 401.339844 556.160156 399.871094 556.253906 399.816406 C 556.738281 399.507812 556.886719 398.871094 556.589844 398.386719 C 556.28125 397.890625 555.648438 397.742188 555.148438 398.050781 C 555.011719 398.132812 551.957031 400.070312 551.589844 404.503906 C 551.09375 410.609375 555.835938 418.070312 565.683594 426.695312 C 565.886719 426.871094 566.128906 426.949219 566.371094 426.949219 C 566.667969 426.949219 566.949219 426.828125 567.152344 426.601562 C 567.53125 426.167969 567.488281 425.507812 567.058594 425.132812 C 555.484375 414.972656 553.382812 408.425781 553.667969 404.71875 Z M 513.71875 372.574219 C 518.164062 377.058594 533.902344 394.441406 533.105469 415 C 533.105469 415 508.25 411.320312 496.285156 408.25 C 491.527344 407.023438 488.792969 403.332031 487.21875 399.316406 C 478.957031 394.925781 465.902344 387.472656 465.902344 384.320312 C 465.902344 379.714844 474.796875 384.632812 485.117188 386.421875 C 485.117188 386.421875 485.089844 387.042969 485.117188 388.027344 C 485.089844 387.03125 485.117188 386.421875 485.117188 386.421875 C 485.117188 386.421875 502.496094 389.628906 511.671875 373.113281 C 511.578125 372.910156 511.535156 372.667969 511.589844 372.4375 C 516.710938 351.664062 514.835938 337.515625 512.359375 329.296875 C 509.675781 320.417969 505.757812 316.390625 505.714844 316.351562 C 505.3125 315.945312 505.3125 315.285156 505.714844 314.867188 C 506.121094 314.464844 506.78125 314.464844 507.183594 314.867188 C 507.871094 315.542969 523.621094 331.886719 513.71875 372.574219 Z M 485.128906 388.402344 C 485.128906 388.378906 485.128906 388.335938 485.128906 388.308594 C 485.128906 388.335938 485.128906 388.363281 485.128906 388.402344 Z M 485.128906 388.402344 " fill-opacity="1" fill-rule="nonzero"/></svg>